# Blender v2.78 (sub 0) OBJ File: ''
# www.blender.org
mtllib brain.mtl
o Cube_Cube.001
v -1.178155 1.906830 -2.228851
v -1.460997 1.123600 -2.404974
v -1.780225 1.578936 -1.632800
v -1.758904 2.356359 0.433215
v -1.578434 2.357982 1.281720
v -0.949419 2.532267 1.839865
v -1.702711 2.362923 -0.727416
v -0.721490 2.309429 -2.047993
v -1.949489 1.062739 -1.630597
v -1.635209 0.328305 -1.653257
v -2.008353 0.305808 -1.288308
v -0.002401 -1.603842 0.620288
v -0.005422 -2.339712 0.619982
v -0.270165 -1.673540 0.696169
v -0.370960 1.972825 -2.455797
v 0.001236 1.663833 -2.383496
v -0.373710 1.692510 -2.861928
v -0.554034 -1.748022 0.945106
v -0.441938 -1.937066 1.404497
v -0.898384 -1.981660 1.445975
v -0.680318 -0.572204 -1.411401
v -0.728957 -0.987158 -0.723329
v -1.675469 -0.868847 -0.723925
v -1.338279 -1.457221 0.727431
v -1.660185 -1.732762 1.254448
v -0.295138 2.479270 -1.984921
v -1.852267 -1.580121 1.821985
v -1.850361 -1.385110 0.772288
v -0.823420 2.808259 -0.681691
v -0.001043 -1.703609 1.414231
v -0.419921 -1.955063 2.143830
v -0.330198 0.130889 -2.807154
v -0.008103 0.042867 -2.542818
v -0.351809 -0.257652 -2.013608
v -1.004547 -1.941960 2.109208
v -1.159715 0.015186 -2.196324
v -0.718585 -0.257087 -1.556077
v -1.502159 -0.236210 -1.381541
v 1.700465 2.367859 -0.714062
v 1.362298 1.922942 -1.919575
v 0.744442 2.303562 -2.038062
v 0.366637 1.972825 -2.455797
v 0.353527 1.708317 -2.861997
v 0.510639 -1.723626 0.913945
v 0.894061 -1.981660 1.445975
v 0.448977 -1.937066 1.365155
v 0.724634 -0.992749 -0.723329
v 0.291263 -0.865258 0.172771
v 0.025746 -0.715280 -0.563958
v 1.333956 -1.457221 0.727431
v 1.632008 -1.742996 1.233357
v 1.846038 -1.385110 0.772288
v 1.847944 -1.580121 1.821985
v 0.812202 2.807352 -0.705090
v 0.848326 2.759506 0.567787
v 1.233310 0.038682 -2.198373
v 1.566717 0.029551 -1.636292
v 1.670411 -0.138868 -1.376391
v 0.415598 -1.948405 2.143830
v 1.483514 2.393763 1.419136
v 1.757284 2.342693 0.473018
v 1.017752 -1.932297 2.112023
v -0.754234 -1.181856 0.529810
v -0.012310 -2.337254 1.484960
v -0.329446 -2.337254 1.387587
v 0.336485 -2.337254 1.348244
v 0.398147 -2.337253 0.897035
v -0.441542 -2.337254 0.928195
v -0.838777 2.760890 0.673941
v -1.476355 0.360782 -2.268353
v -1.664154 -0.018136 -1.477602
v -2.261767 -0.265706 -0.731996
v -2.282876 -0.434998 0.108791
v -2.576791 0.078118 0.269543
v -2.022583 1.840209 -1.053651
v -1.492092 1.962395 2.014132
v -2.081833 1.805862 1.579863
v -1.188471 -0.899462 0.102203
v -0.027351 -0.759695 0.030400
v -0.814144 0.133630 -2.643838
v -0.385790 0.506584 -3.021106
v -0.395468 2.855243 -0.723327
v 0.018005 2.647268 -0.642388
v -0.062724 2.683464 0.774335
v -1.855721 -0.802198 0.108131
v -1.734718 1.003457 -2.201996
v -1.262357 -1.089419 2.565379
v -1.255315 -0.153843 2.775709
v -1.670918 -0.153843 2.412868
v -0.043902 -0.148667 -1.346189
v 1.487769 1.962395 2.014132
v 2.077510 1.805862 1.579863
v 2.338394 1.585411 0.125674
v 1.971949 1.736065 -1.250911
v 2.359756 0.792998 -0.629342
v 2.221956 -0.044410 -0.894826
v 1.954072 1.116000 -1.573073
v 2.115214 -0.968357 1.850870
v 2.243041 -0.824628 1.123725
v 2.515149 -0.153844 0.896619
v 2.241469 -0.300795 -0.723329
v 1.100808 1.857421 -2.360937
v 0.499701 1.796342 2.853951
v -0.004242 0.781991 2.756220
v 0.500037 0.792996 3.158655
v -0.002081 2.201082 -1.951959
v 0.289951 2.482049 -1.975342
v 1.256654 1.228574 -2.501591
v 0.865243 1.048183 -2.940597
v 1.209575 -0.886372 0.050938
v 1.661323 -0.864940 -0.738739
v 1.851398 -0.791852 0.294560
v 1.502652 0.307966 -2.180363
v 0.827194 0.124145 -2.627523
v 1.003062 0.629797 -2.745811
v 1.250992 -0.153843 2.775709
v 1.204892 -1.070544 2.618001
v 1.491046 0.848172 2.748062
v 0.771272 2.516565 1.990190
v 1.230934 -0.570586 -1.267855
v 0.725572 -0.254202 -1.557276
v 0.336533 0.070751 -2.762609
v 0.592849 -0.586491 -1.403421
v -0.044540 -0.311725 -1.199214
v 0.391184 -0.254464 -1.956410
v -2.240949 1.796343 0.896620
v -2.337825 1.590364 0.269544
v -2.364079 0.792998 -0.629342
v -2.552252 0.792997 0.896620
v -2.519472 -0.153844 0.896619
v -2.199166 0.792997 1.686586
v -2.155587 -0.153843 1.922889
v -2.107736 -1.027825 1.829523
v -2.130677 -0.824628 0.896619
v -2.588375 0.792998 0.269544
v -1.807961 1.144259 2.424481
v -0.002081 1.080568 -2.798123
v -0.322822 1.115571 -3.095913
v -0.002081 0.502961 -2.812613
v -0.869566 1.048183 -2.940597
v -0.002081 -0.977011 2.327897
v -0.504024 1.796342 2.853951
v -0.504360 0.792996 3.158655
v -0.471577 -0.153843 3.084513
v -0.484383 -1.464057 2.518865
v -0.002081 -0.123435 2.791682
v -0.002081 2.156044 2.143490
v -0.437771 2.497231 2.058175
v -1.305278 0.792996 2.862011
v -1.055528 1.899529 2.556689
v 2.236626 1.796343 0.896620
v 2.572468 0.078118 0.269543
v 2.604253 0.763108 0.517562
v 2.194843 0.792997 1.686586
v 1.803638 1.144259 2.424481
v 2.316577 -0.434998 0.108791
v 0.318499 1.115571 -3.095913
v 0.381467 0.506584 -3.021106
v 0.467254 -0.153843 3.084513
v 0.391145 2.855243 -0.723327
v 0.195431 2.826334 0.891130
v 0.480060 -1.464057 2.518865
v 1.051205 1.899529 2.556689
v 0.433448 2.497231 2.058175
v 1.730395 1.003457 -2.201996
vt 0.8233 0.1196
vt 0.8490 0.1608
vt 0.7934 0.1671
vt 0.6594 0.1813
vt 0.6106 0.2057
vt 0.5548 0.1959
vt 0.7253 0.1501
vt 0.8075 0.0796
vt 0.8060 0.1952
vt 0.8387 0.2268
vt 0.8094 0.2427
vt 0.8226 0.5522
vt 0.7726 0.6104
vt 0.7935 0.5357
vt 0.8542 0.0679
vt 0.8843 0.0312
vt 0.8854 0.0839
vt 0.7480 0.5209
vt 0.6812 0.5397
vt 0.6848 0.4873
vt 0.9132 0.3052
vt 0.8826 0.3633
vt 0.8220 0.3236
vt 0.7465 0.4314
vt 0.6970 0.4257
vt 0.8031 0.0470
vt 0.6620 0.4139
vt 0.7249 0.3980
vt 0.7053 0.0899
vt 0.6342 0.5795
vt 0.6180 0.4999
vt 0.9537 0.1670
vt 0.9904 0.1834
vt 0.9569 0.2406
vt 0.6379 0.4648
vt 0.8931 0.2161
vt 0.9198 0.2777
vt 0.8526 0.2679
vt 0.2671 0.8086
vt 0.3475 0.8501
vt 0.3390 0.9048
vt 0.4169 0.9867
vt 0.3889 0.9376
vt 0.4281 0.9231
vt 0.3810 0.4426
vt 0.3037 0.4617
vt 0.3189 0.4112
vt 0.4742 0.6223
vt 0.4772 0.5205
vt 0.5486 0.5855
vt 0.3519 0.5288
vt 0.3040 0.5232
vt 0.3236 0.5563
vt 0.2655 0.5290
vt 0.2306 0.8688
vt 0.1533 0.8022
vt 0.4565 0.7771
vt 0.4214 0.7427
vt 0.4139 0.7202
vt 0.2417 0.4337
vt 0.2787 0.3601
vt 0.1555 0.7228
vt 0.2083 0.7565
vt 0.2529 0.4740
vt 0.4472 0.4296
vt 0.7986 0.4597
vt 0.6883 0.6104
vt 0.7042 0.5830
vt 0.3506 0.3718
vt 0.3392 0.3366
vt 0.4219 0.3649
vt 0.3808 0.3879
vt 0.7389 0.5723
vt 0.6096 0.1284
vt 0.8686 0.1990
vt 0.8421 0.2514
vt 0.7888 0.2872
vt 0.7495 0.3212
vt 0.7254 0.2960
vt 0.7544 0.1773
vt 0.5785 0.2420
vt 0.6206 0.2470
vt 0.8065 0.3970
vt 0.9061 0.4697
vt 0.9191 0.1848
vt 0.9379 0.1408
vt 0.7014 0.0557
vt 0.6887 0.0137
vt 0.5546 0.0711
vt 0.7693 0.3546
vt 0.8371 0.1784
vt 0.6026 0.4170
vt 0.5710 0.3716
vt 0.6031 0.3588
vt 0.9893 0.3085
vt 0.1421 0.6797
vt 0.1853 0.6850
vt 0.2600 0.7282
vt 0.3192 0.7937
vt 0.3227 0.7234
vt 0.3667 0.6984
vt 0.3595 0.7814
vt 0.2514 0.5594
vt 0.2870 0.5858
vt 0.2803 0.6276
vt 0.3678 0.6804
vt 0.5194 0.5158
vt 0.3767 0.8736
vt 0.0659 0.6338
vt 0.0187 0.5440
vt 0.0844 0.5680
vt 0.3298 0.9867
vt 0.1867 0.9405
vt 0.3231 0.9444
vt 0.4087 0.8438
vt 0.4442 0.8665
vt 0.4044 0.5811
vt 0.4079 0.6520
vt 0.3503 0.6013
vt 0.4305 0.7834
vt 0.4821 0.8152
vt 0.4531 0.8366
vt 0.1690 0.5500
vt 0.2035 0.5087
vt 0.1465 0.6046
vt 0.0920 0.7126
vt 0.4490 0.6874
vt 0.4991 0.7171
vt 0.5204 0.8320
vt 0.5040 0.6831
vt 0.5767 0.6722
vt 0.5805 0.6936
vt 0.5300 0.7542
vt 0.6557 0.2318
vt 0.6924 0.2254
vt 0.7569 0.2401
vt 0.6797 0.2777
vt 0.6973 0.3208
vt 0.6355 0.2949
vt 0.6410 0.3444
vt 0.6576 0.3837
vt 0.7096 0.3623
vt 0.7104 0.2637
vt 0.5858 0.2930
vt 0.9471 0.0754
vt 0.9161 0.1074
vt 0.9777 0.1280
vt 0.9811 0.3313
vt 0.9478 0.4115
vt 0.8908 0.1346
vt 0.5283 0.5101
vt 0.4954 0.2683
vt 0.4974 0.3357
vt 0.4301 0.3430
vt 0.5151 0.3978
vt 0.5841 0.4728
vt 0.4722 0.4275
vt 0.8175 0.0148
vt 0.4547 0.1898
vt 0.5112 0.1907
vt 0.5532 0.3207
vt 0.5374 0.2567
vt 0.2176 0.7084
vt 0.3033 0.6590
vt 0.2704 0.6787
vt 0.2117 0.6401
vt 0.1612 0.6316
vt 0.3323 0.6397
vt 0.4993 0.9430
vt 0.4679 0.9007
vt 0.5413 0.8858
vt 0.5634 0.8259
vt 0.4975 0.8660
vt 0.1567 0.4018
vt 0.1175 0.5102
vt 0.0818 0.4703
vt 0.0728 0.8411
vt 0.2138 0.9032
vt 0.0079 0.7030
vt 0.0918 0.8164
vt 0.2023 0.4520
vt 0.1047 0.6546
vt 0.0635 0.7149
vt 0.3936 0.8078
vn -0.5666 0.5794 -0.5859
vn -0.6709 0.1917 -0.7164
vn -0.7732 0.4253 -0.4704
vn -0.6072 0.7941 0.0275
vn -0.5164 0.8290 0.2149
vn -0.2931 0.8808 0.3718
vn -0.6223 0.7578 -0.1963
vn -0.3278 0.7878 -0.5214
vn -0.9091 0.0146 -0.4164
vn -0.8626 -0.2294 -0.4510
vn -0.7865 -0.2101 -0.5807
vn 0.0890 -0.3552 -0.9306
vn 0.0114 -0.6279 -0.7782
vn -0.3707 -0.3116 -0.8749
vn 0.3387 0.7165 -0.6099
vn -0.0138 0.6807 -0.7324
vn 0.1701 0.5876 -0.7911
vn -0.4950 -0.6149 -0.6139
vn -0.2420 -0.9239 0.2965
vn -0.1134 -0.9707 -0.2121
vn 0.1437 -0.6534 -0.7432
vn 0.1286 -0.9630 -0.2369
vn -0.4106 -0.8482 -0.3345
vn -0.0881 -0.7714 -0.6302
vn -0.4767 -0.8468 -0.2360
vn 0.2259 0.8320 -0.5068
vn -0.7142 -0.6196 0.3256
vn -0.6079 -0.6750 -0.4181
vn -0.2902 0.9468 -0.1392
vn 0.0184 -0.6653 0.7464
vn 0.3773 -0.8120 0.4453
vn 0.0902 -0.6763 -0.7311
vn -0.0060 -0.8441 -0.5362
vn 0.1346 -0.9707 -0.1988
vn -0.2533 -0.8454 0.4702
vn -0.4097 -0.7944 -0.4485
vn -0.0085 -0.8333 -0.5528
vn -0.4108 -0.6850 -0.6017
vn 0.6338 0.7500 -0.1892
vn 0.6595 0.5761 -0.4829
vn 0.3376 0.7792 -0.5280
vn -0.2106 0.7323 -0.6475
vn -0.1958 0.6054 -0.7715
vn 0.4236 -0.5862 -0.6906
vn 0.1125 -0.9716 -0.2081
vn 0.3068 -0.9248 0.2249
vn -0.1077 -0.9655 -0.2372
vn -0.0227 -0.8652 -0.5009
vn -0.0400 -0.9593 -0.2794
vn 0.1245 -0.7551 -0.6437
vn 0.4534 -0.8553 -0.2508
vn 0.5724 -0.6509 -0.4987
vn 0.7006 -0.6308 0.3335
vn 0.2863 0.9470 -0.1457
vn 0.2752 0.9585 0.0746
vn 0.4479 -0.7638 -0.4647
vn 0.8038 -0.3261 -0.4976
vn 0.5047 -0.5988 -0.6219
vn -0.3778 -0.8117 0.4453
vn 0.5072 0.8180 0.2714
vn 0.6129 0.7895 0.0322
vn 0.2573 -0.8437 0.4711
vn -0.0385 -0.6873 -0.7254
vn 0.0270 -0.6356 0.7715
vn -0.4976 -0.6914 0.5238
vn 0.5426 -0.6948 0.4720
vn 0.6631 -0.6667 -0.3403
vn -0.6824 -0.6720 -0.2877
vn -0.1800 0.9773 0.1117
vn -0.7283 -0.3918 -0.5622
vn -0.6644 -0.4874 -0.5665
vn -0.8142 -0.4225 -0.3982
vn -0.7813 -0.6066 -0.1468
vn -0.9729 -0.2080 -0.1005
vn -0.8078 0.4712 -0.3543
vn -0.5780 0.6243 0.5255
vn -0.7993 0.4762 0.3666
vn -0.0223 -0.9475 -0.3189
vn -0.0141 -0.9309 -0.3651
vn -0.3792 -0.6402 -0.6681
vn 0.0432 -0.2883 -0.9566
vn 0.1634 0.9781 -0.1288
vn -0.0340 0.9903 -0.1345
vn -0.1864 0.9728 0.1378
vn -0.5090 -0.8131 -0.2823
vn -0.8153 0.0446 -0.5773
vn -0.4229 -0.3516 0.8352
vn -0.5071 -0.1425 0.8500
vn -0.6997 -0.0918 0.7085
vn 0.0207 -0.8913 -0.4530
vn 0.5664 0.6232 0.5392
vn 0.8035 0.4727 0.3617
vn 0.9057 0.4122 -0.0989
vn 0.8274 0.4060 -0.3879
vn 0.9538 0.0812 -0.2893
vn 0.8372 -0.2171 -0.5020
vn 0.8929 0.0779 -0.4434
vn 0.8569 -0.2513 0.4501
vn 0.8885 -0.4520 -0.0794
vn 0.9718 -0.1859 0.1452
vn 0.8036 -0.4491 -0.3905
vn 0.5526 0.5558 -0.6211
vn -0.1588 0.4879 0.8583
vn 0.0023 0.1669 0.9860
vn -0.1317 0.1041 0.9858
vn 0.0045 0.7752 -0.6317
vn -0.2299 0.8351 -0.4998
vn 0.6569 0.2476 -0.7122
vn 0.5131 0.0850 -0.8541
vn 0.0994 -0.9604 -0.2602
vn 0.3923 -0.8585 -0.3303
vn 0.5014 -0.8004 -0.3285
vn 0.7530 -0.4139 -0.5116
vn 0.3810 -0.6617 -0.6458
vn 0.5725 -0.2290 -0.7873
vn 0.5413 -0.1398 0.8292
vn 0.4021 -0.3505 0.8459
vn 0.5808 0.0786 0.8102
vn 0.2413 0.8560 0.4572
vn 0.2373 -0.6548 -0.7175
vn 0.0600 -0.8234 -0.5643
vn -0.0672 -0.7193 -0.6915
vn -0.1842 -0.6423 -0.7440
vn 0.0093 -0.7312 -0.6821
vn -0.0779 -0.9793 -0.1870
vn -0.8629 0.4898 0.1247
vn -0.9057 0.4179 -0.0716
vn -0.9499 0.0735 -0.3039
vn -0.9638 0.1302 0.2325
vn -0.9461 -0.2821 0.1589
vn -0.9009 0.0789 0.4267
vn -0.8593 -0.0424 0.5098
vn -0.9005 -0.2619 0.3471
vn -0.8950 -0.4405 -0.0704
vn -0.9858 0.1410 -0.0911
vn -0.7335 0.2031 0.6486
vn -0.0047 0.2055 -0.9786
vn 0.2374 0.1297 -0.9627
vn 0.0055 -0.2561 -0.9666
vn -0.4948 0.0816 -0.8652
vn 0.0002 -0.5094 0.8606
vn 0.1613 0.4893 0.8571
vn 0.1448 0.1017 0.9842
vn 0.1370 -0.2029 0.9696
vn 0.2530 -0.4783 0.8410
vn -0.0005 -0.2399 0.9708
vn -0.0041 0.7629 0.6465
vn 0.1711 0.8734 0.4559
vn -0.4987 0.0778 0.8633
vn -0.4262 0.5696 0.7028
vn 0.8636 0.4866 0.1323
vn 0.9758 -0.1874 -0.1124
vn 0.9901 0.1269 0.0602
vn 0.9089 0.0678 0.4115
vn 0.7530 0.1584 0.6386
vn 0.7871 -0.6005 -0.1412
vn -0.2342 0.1230 -0.9644
vn -0.0565 -0.2965 -0.9534
vn -0.1401 -0.1987 0.9700
vn -0.1784 0.9738 -0.1412
vn -0.2341 0.9574 0.1689
vn -0.2657 -0.4845 0.8335
vn 0.4277 0.5700 0.7015
vn -0.2004 0.8431 0.4990
vn 0.8285 0.0629 -0.5565
usemtl None
s 1
f 1/1/1 2/2/2 3/3/3
f 4/4/4 5/5/5 6/6/6
f 1/1/1 7/7/7 8/8/8
f 9/9/9 10/10/10 11/11/11
f 12/12/12 13/13/13 14/14/14
f 15/15/15 16/16/16 17/17/17
f 18/18/18 19/19/19 20/20/20
f 21/21/21 22/22/22 23/23/23
f 24/24/24 20/20/20 25/25/25
f 8/8/8 17/17/17 1/1/1
f 8/8/8 26/26/26 15/15/15
f 25/25/25 27/27/27 28/28/28
f 28/28/28 24/24/24 25/25/25
f 7/7/7 29/29/29 8/8/8
f 19/19/19 30/30/30 31/31/31
f 32/32/32 33/33/33 34/34/34
f 27/27/27 25/25/25 35/35/35
f 20/20/20 24/24/24 18/18/18
f 36/36/36 37/37/37 38/38/38
f 25/25/25 20/20/20 35/35/35
f 39/39/39 40/40/40 41/41/41
f 16/42/16 42/43/42 43/44/43
f 44/45/44 45/46/45 46/47/46
f 47/48/47 48/49/48 49/50/49
f 50/51/50 51/52/51 45/46/45
f 51/52/51 52/53/52 53/54/53
f 52/53/52 51/52/51 50/51/50
f 54/55/54 39/39/39 41/41/41
f 54/55/54 55/56/55 39/39/39
f 56/57/56 57/58/57 58/59/58
f 46/47/46 59/60/59 30/61/30
f 60/62/60 61/63/61 55/56/55
f 45/46/45 44/45/44 50/51/50
f 51/52/51 62/64/62 45/46/45
f 48/49/48 44/45/44 12/65/12
f 48/49/48 50/51/50 44/45/44
f 24/24/24 63/66/63 18/18/18
f 64/67/64 65/68/65 13/13/13
f 66/69/66 64/70/64 13/71/13
f 67/72/67 66/69/66 13/71/13
f 65/68/65 68/73/68 13/13/13
f 7/7/7 4/4/4 69/74/69
f 70/75/70 71/76/71 10/10/10
f 72/77/72 73/78/73 74/79/74
f 10/10/10 71/76/71 11/11/11
f 75/80/75 3/3/3 9/9/9
f 76/81/76 5/5/5 77/82/77
f 15/15/15 17/17/17 8/8/8
f 63/66/63 78/83/78 79/84/79
f 32/32/32 80/85/80 81/86/81
f 82/87/82 83/88/83 26/26/26
f 84/89/84 83/88/83 82/87/82
f 26/26/26 8/8/8 29/29/29
f 85/90/85 23/23/23 78/83/78
f 23/23/23 38/38/38 21/21/21
f 70/75/70 86/91/86 2/2/2
f 87/92/87 88/93/88 89/94/89
f 6/6/6 69/74/69 4/4/4
f 29/29/29 7/7/7 69/74/69
f 38/38/38 37/37/37 21/21/21
f 34/34/34 37/37/37 36/36/36
f 37/37/37 34/34/34 90/95/90
f 38/38/38 71/76/71 36/36/36
f 60/62/60 91/96/91 92/97/92
f 55/56/55 61/63/61 39/39/39
f 61/63/61 93/98/93 39/39/39
f 39/39/39 94/99/94 40/40/40
f 95/100/95 96/101/96 97/102/97
f 98/103/98 99/104/99 100/105/100
f 96/101/96 101/106/101 58/59/58
f 79/107/79 49/50/49 48/49/48
f 42/43/42 102/108/102 43/44/43
f 103/109/103 104/110/104 105/111/105
f 106/112/106 83/113/83 107/114/107
f 102/108/102 108/115/108 109/116/109
f 48/49/48 110/117/110 50/51/50
f 107/114/107 54/55/54 41/41/41
f 40/40/40 102/108/102 41/41/41
f 111/118/111 112/119/112 110/117/110
f 113/120/113 114/121/114 115/122/115
f 116/123/116 117/124/117 118/125/118
f 60/62/60 55/56/55 119/126/119
f 56/57/56 113/120/113 57/58/57
f 120/127/120 121/128/121 58/59/58
f 122/129/122 114/121/114 56/57/56
f 56/57/56 58/59/58 121/128/121
f 121/128/121 123/130/123 124/131/124
f 121/128/121 124/131/124 90/132/90
f 53/54/53 62/64/62 51/52/51
f 125/133/125 121/128/121 90/132/90
f 5/5/5 126/134/126 77/82/77
f 7/7/7 127/135/127 4/4/4
f 127/135/127 126/134/126 4/4/4
f 7/7/7 3/3/3 75/80/75
f 128/136/128 11/11/11 72/77/72
f 74/79/74 128/136/128 72/77/72
f 129/137/129 74/79/74 130/138/130
f 131/139/131 130/138/130 132/140/132
f 89/94/89 131/139/131 132/140/132
f 10/10/10 86/91/86 70/75/70
f 89/94/89 133/141/133 87/92/87
f 132/140/132 134/142/134 133/141/133
f 130/138/130 73/78/73 134/142/134
f 72/77/72 38/38/38 23/23/23
f 11/11/11 71/76/71 72/77/72
f 72/77/72 85/90/85 73/78/73
f 134/142/134 85/90/85 28/28/28
f 133/141/133 28/28/28 27/27/27
f 87/92/87 27/27/27 35/35/35
f 127/135/127 128/136/128 135/143/135
f 75/80/75 9/9/9 128/136/128
f 129/137/129 127/135/127 135/143/135
f 131/139/131 126/134/126 129/137/129
f 136/144/136 77/82/77 131/139/131
f 3/3/3 86/91/86 9/9/9
f 17/17/17 137/145/137 138/146/138
f 139/147/139 32/32/32 81/86/81
f 137/145/137 81/86/81 138/146/138
f 22/22/22 79/84/79 78/83/78
f 22/22/22 124/148/124 49/149/49
f 140/150/140 81/86/81 80/85/80
f 141/151/141 31/31/31 30/30/30
f 17/17/17 138/146/138 140/150/140
f 142/152/142 143/153/143 104/154/104
f 141/151/141 144/155/144 145/156/145
f 104/154/104 144/155/144 146/157/146
f 15/15/15 106/158/106 16/16/16
f 147/159/147 142/152/142 104/154/104
f 26/26/26 83/88/83 106/158/106
f 148/160/148 147/159/147 84/89/84
f 1/1/1 140/150/140 2/2/2
f 70/75/70 140/150/140 80/85/80
f 142/152/142 149/161/149 143/153/143
f 78/83/78 23/23/23 22/22/22
f 63/66/63 24/24/24 78/83/78
f 145/156/145 35/35/35 31/31/31
f 144/155/144 87/92/87 145/156/145
f 143/153/143 88/93/88 144/155/144
f 69/74/69 82/87/82 29/29/29
f 82/87/82 26/26/26 29/29/29
f 6/6/6 84/89/84 69/74/69
f 148/160/148 150/162/150 142/152/142
f 85/90/85 24/24/24 28/28/28
f 150/162/150 136/144/136 149/161/149
f 149/161/149 89/94/89 88/93/88
f 36/36/36 70/75/70 80/85/80
f 76/81/76 150/162/150 6/6/6
f 34/34/34 80/85/80 32/32/32
f 37/37/37 124/148/124 21/21/21
f 31/31/31 20/20/20 19/19/19
f 19/19/19 64/67/64 30/30/30
f 33/33/33 90/95/90 34/34/34
f 19/19/19 68/73/68 65/68/65
f 14/14/14 68/73/68 18/18/18
f 151/163/151 60/62/60 92/97/92
f 152/164/152 95/100/95 153/165/153
f 61/63/61 151/163/151 93/98/93
f 39/39/39 93/98/93 94/99/94
f 97/102/97 96/101/96 57/58/57
f 100/105/100 154/166/154 98/103/98
f 153/165/153 100/105/100 152/164/152
f 118/125/118 154/166/154 155/167/155
f 113/120/113 97/102/97 57/58/57
f 156/168/156 100/105/100 99/104/99
f 118/125/118 117/124/117 98/103/98
f 101/106/101 152/164/152 156/168/156
f 111/118/111 58/59/58 101/106/101
f 57/58/57 96/101/96 58/59/58
f 111/118/111 156/168/156 112/119/112
f 112/119/112 99/104/99 52/53/52
f 53/54/53 99/104/99 98/103/98
f 53/54/53 117/124/117 62/64/62
f 95/100/95 94/99/94 93/98/93
f 154/166/154 151/163/151 92/97/92
f 93/98/93 153/165/153 95/100/95
f 93/98/93 151/163/151 153/165/153
f 155/167/155 92/97/92 91/96/91
f 97/102/97 40/40/40 94/99/94
f 137/169/137 43/44/43 157/170/157
f 139/171/139 122/129/122 33/172/33
f 137/169/137 158/173/158 139/171/139
f 49/50/49 123/130/123 47/48/47
f 158/173/158 109/116/109 115/122/115
f 158/173/158 114/121/114 122/129/122
f 109/116/109 43/44/43 102/108/102
f 59/60/59 141/174/141 30/61/30
f 141/174/141 159/175/159 146/176/146
f 159/175/159 104/110/104 146/176/146
f 106/112/106 42/43/42 16/42/16
f 84/177/84 160/178/160 83/113/83
f 160/178/160 107/114/107 83/113/83
f 147/179/147 161/180/161 84/177/84
f 103/109/103 147/179/147 104/110/104
f 120/127/120 47/48/47 123/130/123
f 109/116/109 108/115/108 115/122/115
f 110/117/110 47/48/47 111/118/111
f 118/125/118 103/109/103 105/111/105
f 62/64/62 162/181/162 59/60/59
f 117/124/117 159/175/159 162/181/162
f 116/123/116 105/111/105 159/175/159
f 41/41/41 42/43/42 107/114/107
f 55/56/55 160/178/160 161/180/161
f 54/55/54 107/114/107 160/178/160
f 161/180/161 119/126/119 55/56/55
f 163/182/163 164/183/164 103/109/103
f 112/119/112 50/51/50 110/117/110
f 115/122/115 165/184/165 113/120/113
f 108/115/108 40/40/40 165/184/165
f 155/167/155 163/182/163 118/125/118
f 91/96/91 119/126/119 163/182/163
f 56/57/56 125/133/125 122/129/122
f 56/57/56 114/121/114 113/120/113
f 121/128/121 120/127/120 123/130/123
f 45/46/45 59/60/59 46/47/46
f 125/133/125 33/172/33 122/129/122
f 64/70/64 46/47/46 30/61/30
f 46/47/46 67/72/67 44/45/44
f 13/71/13 44/45/44 67/72/67
f 63/66/63 12/12/12 14/14/14
f 12/65/12 79/107/79 48/49/48
f 14/14/14 18/18/18 63/66/63
f 76/81/76 6/6/6 5/5/5
f 5/5/5 4/4/4 126/134/126
f 7/7/7 75/80/75 127/135/127
f 7/7/7 1/1/1 3/3/3
f 128/136/128 9/9/9 11/11/11
f 74/79/74 135/143/135 128/136/128
f 129/137/129 135/143/135 74/79/74
f 131/139/131 129/137/129 130/138/130
f 89/94/89 136/144/136 131/139/131
f 10/10/10 9/9/9 86/91/86
f 89/94/89 132/140/132 133/141/133
f 132/140/132 130/138/130 134/142/134
f 130/138/130 74/79/74 73/78/73
f 72/77/72 71/76/71 38/38/38
f 72/77/72 23/23/23 85/90/85
f 134/142/134 73/78/73 85/90/85
f 133/141/133 134/142/134 28/28/28
f 87/92/87 133/141/133 27/27/27
f 127/135/127 75/80/75 128/136/128
f 129/137/129 126/134/126 127/135/127
f 131/139/131 77/82/77 126/134/126
f 136/144/136 76/81/76 77/82/77
f 3/3/3 2/2/2 86/91/86
f 17/17/17 16/16/16 137/145/137
f 139/147/139 33/33/33 32/32/32
f 137/145/137 139/147/139 81/86/81
f 22/22/22 49/149/49 79/84/79
f 22/22/22 21/21/21 124/148/124
f 140/150/140 138/146/138 81/86/81
f 141/151/141 145/156/145 31/31/31
f 141/151/141 146/157/146 144/155/144
f 104/154/104 143/153/143 144/155/144
f 15/15/15 26/26/26 106/158/106
f 147/159/147 148/160/148 142/152/142
f 1/1/1 17/17/17 140/150/140
f 70/75/70 2/2/2 140/150/140
f 142/152/142 150/162/150 149/161/149
f 145/156/145 87/92/87 35/35/35
f 144/155/144 88/93/88 87/92/87
f 143/153/143 149/161/149 88/93/88
f 69/74/69 84/89/84 82/87/82
f 6/6/6 148/160/148 84/89/84
f 148/160/148 6/6/6 150/162/150
f 85/90/85 78/83/78 24/24/24
f 150/162/150 76/81/76 136/144/136
f 149/161/149 136/144/136 89/94/89
f 36/36/36 71/76/71 70/75/70
f 34/34/34 36/36/36 80/85/80
f 37/37/37 90/95/90 124/148/124
f 31/31/31 35/35/35 20/20/20
f 19/19/19 65/68/65 64/67/64
f 19/19/19 18/18/18 68/73/68
f 14/14/14 13/13/13 68/73/68
f 151/163/151 61/63/61 60/62/60
f 152/164/152 96/101/96 95/100/95
f 100/105/100 153/165/153 154/166/154
f 118/125/118 98/103/98 154/166/154
f 113/120/113 165/184/165 97/102/97
f 156/168/156 152/164/152 100/105/100
f 101/106/101 96/101/96 152/164/152
f 111/118/111 120/127/120 58/59/58
f 111/118/111 101/106/101 156/168/156
f 112/119/112 156/168/156 99/104/99
f 53/54/53 52/53/52 99/104/99
f 53/54/53 98/103/98 117/124/117
f 95/100/95 97/102/97 94/99/94
f 154/166/154 153/165/153 151/163/151
f 155/167/155 154/166/154 92/97/92
f 97/102/97 165/184/165 40/40/40
f 137/169/137 16/42/16 43/44/43
f 139/171/139 158/173/158 122/129/122
f 137/169/137 157/170/157 158/173/158
f 49/50/49 124/131/124 123/130/123
f 158/173/158 157/170/157 109/116/109
f 158/173/158 115/122/115 114/121/114
f 109/116/109 157/170/157 43/44/43
f 59/60/59 162/181/162 141/174/141
f 141/174/141 162/181/162 159/175/159
f 159/175/159 105/111/105 104/110/104
f 106/112/106 107/114/107 42/43/42
f 84/177/84 161/180/161 160/178/160
f 147/179/147 164/183/164 161/180/161
f 103/109/103 164/183/164 147/179/147
f 120/127/120 111/118/111 47/48/47
f 110/117/110 48/49/48 47/48/47
f 118/125/118 163/182/163 103/109/103
f 62/64/62 117/124/117 162/181/162
f 117/124/117 116/123/116 159/175/159
f 116/123/116 118/125/118 105/111/105
f 41/41/41 102/108/102 42/43/42
f 55/56/55 54/55/54 160/178/160
f 161/180/161 164/183/164 119/126/119
f 163/182/163 119/126/119 164/183/164
f 112/119/112 52/53/52 50/51/50
f 115/122/115 108/115/108 165/184/165
f 108/115/108 102/108/102 40/40/40
f 155/167/155 91/96/91 163/182/163
f 91/96/91 60/62/60 119/126/119
f 56/57/56 121/128/121 125/133/125
f 45/46/45 62/64/62 59/60/59
f 125/133/125 90/132/90 33/172/33
f 64/70/64 66/69/66 46/47/46
f 46/47/46 66/69/66 67/72/67
f 13/71/13 12/65/12 44/45/44
f 63/66/63 79/84/79 12/12/12
