# Blender v2.78 (sub 0) OBJ File: ''
# www.blender.org
mtllib Guts.mtl
o Cube_Cube.002
v -0.417140 -1.780283 -2.411118
v -0.098097 -2.377446 -0.943983
v 0.755170 -1.561538 -0.201150
v 0.028592 -2.482795 -2.803233
v 0.504433 -1.912171 -2.713861
v 0.946256 -2.309718 -1.308500
v 0.619917 -2.618059 -0.480572
v 0.644516 -1.796210 0.109629
v 1.708677 -1.563335 -0.677155
v 1.925734 -0.589792 -0.109348
v 2.624040 -0.678427 -0.520138
v 1.727933 1.318799 -1.318488
v 1.546766 1.322505 -2.097990
v 2.402801 1.490209 -2.330377
v 2.482856 -0.335306 -1.417969
v 2.492301 1.633194 -1.482288
v 1.857751 3.214067 -0.247542
v 2.729069 2.965531 -0.678557
v 2.819225 3.314114 -1.239974
v 3.054885 3.555994 -0.026294
v 2.007809 3.613394 0.342351
v 1.458659 2.926448 0.791703
v 1.190658 3.145847 1.532677
v 2.139600 2.898011 1.487003
v 2.181333 2.528313 0.814874
v 0.138222 2.800300 1.459511
v -0.163219 3.098357 2.050319
v -2.078230 2.680379 1.558163
v 0.316289 2.264418 2.228745
v -0.742679 2.096059 1.593229
v -1.293931 3.020723 0.954437
v -2.846711 2.533902 -0.136959
v -2.749456 3.083652 -0.763209
v -2.910708 2.068498 -1.524298
v -2.249936 1.834565 -1.722213
v -2.972218 0.423432 -1.469244
v -2.706666 -0.936656 0.705020
v -2.687866 -1.275756 -0.293638
v -1.822187 -0.718744 0.299945
v -2.109682 -0.143573 -1.171797
v -2.170336 2.206690 -0.380661
v -2.851277 1.059521 -0.351770
v 1.757936 -1.767725 0.072837
v 1.731557 -0.267608 -0.934138
v 2.026297 3.608785 -0.705831
v -2.154369 2.934807 -0.978818
v -0.314413 2.271072 0.444010
v -1.386891 2.292407 1.131150
v -0.301131 2.075023 1.208138
v 0.850395 1.531991 1.542970
v -0.301131 1.419631 1.439231
v -0.301131 0.433372 1.251263
v 1.701283 -2.398525 0.355898
v 2.117814 -1.869399 0.521935
v 0.876032 -0.835494 0.912346
v 2.025965 1.948667 0.114828
v 1.669442 1.970936 -0.201671
v 1.184795 2.113287 0.520965
v 2.994015 1.599065 -1.209116
v 2.883879 1.056351 0.172301
v 3.056100 0.433372 -0.713551
v 1.609635 -2.433503 -0.295711
v 0.842191 -2.968477 -0.063557
v 0.817946 -2.834677 -0.635642
v -0.037285 -3.002147 -0.574884
v -0.231895 -3.234828 -0.114014
v -1.964962 -2.297523 -0.491659
v -0.364708 -3.019503 0.304214
v -1.420208 -2.770918 0.304214
v 0.817946 2.503908 0.816304
v 2.197687 2.418550 -0.586647
v -1.935432 1.748130 0.821895
v -1.994344 2.207984 0.246917
v -1.983822 -2.477901 0.227801
v -1.526281 -1.842272 0.496649
v -2.302468 -1.961421 0.428247
v 2.421189 -0.693483 -0.489877
v 2.421189 0.501475 -0.889507
v 3.056100 -0.761586 -0.503758
v -1.464886 -0.633974 1.031947
v -1.904621 -0.639789 1.019417
v 0.817946 -2.960646 0.304214
v 1.485921 -2.047611 -0.323689
v 2.066051 -2.209608 -0.242001
v -1.321821 -1.969386 -0.435394
v -0.350586 -1.696010 -0.209326
v -0.157240 -2.489997 -0.711205
v -2.310053 -1.811655 -0.432806
v 1.128333 -1.770447 -0.282397
v 0.697990 -2.467952 -0.719053
v -2.410345 0.825647 0.114269
v -2.333301 1.929712 0.279480
v -2.558665 2.513429 -0.176187
v -1.662711 0.992098 -0.307632
v -1.222360 0.639698 0.020838
v -1.585088 -0.928862 -0.073753
v -2.340543 1.632546 -0.459168
v -2.447557 2.497093 -0.562827
v -2.384731 2.630512 -0.253475
v -2.104637 2.549949 -0.377936
v 2.672225 2.498591 -1.395148
v 2.318702 1.628330 -1.288122
v 2.189457 2.562946 -1.395148
v -2.309258 2.595840 0.127420
v 0.817946 2.447385 1.324720
v 1.751231 2.099512 1.114156
v 1.696968 2.175864 0.893631
v 1.716183 1.703300 1.230360
v -1.420208 1.252915 1.209181
v -0.234254 -0.898567 0.797046
v -1.356903 0.433372 1.208668
v 2.405123 -0.761586 0.536371
v 2.068552 1.020666 0.901262
v -1.725418 0.954248 0.986431
v -2.338491 0.338431 0.715405
v -2.411655 -0.912059 0.816303
v -2.117991 -0.784025 0.240500
v -2.189351 -0.790401 -0.212304
v -2.219536 0.994442 -0.435979
v 3.056100 -0.761586 0.114827
v 2.465127 -2.013505 0.070814
v 2.467488 -1.956544 -0.361125
v -1.324780 2.313066 0.286890
v 2.725140 2.386643 -0.586647
v 2.672139 1.761839 0.252366
v 1.711380 1.410251 -0.159732
v 1.807129 0.400896 -0.087931
v -0.100886 -0.802122 -0.001678
v 0.879902 -0.110923 0.008009
v 1.693875 -0.268059 -0.266067
v -0.255530 0.386680 0.383153
v 1.043646 0.408725 0.284102
v -0.177238 -0.062648 0.014994
v 1.009467 1.556367 0.382875
v -0.333865 1.534322 0.453356
v -1.321990 1.627598 0.268121
v -1.868989 1.707684 -0.251220
v -1.881804 2.228109 -0.278469
vt 0.8588 0.8798
vt 0.8187 0.8541
vt 0.8187 0.8121
vt 0.8389 0.9064
vt 0.0609 0.3027
vt 0.0929 0.2789
vt 0.0565 0.3769
vt 0.7904 0.8462
vt 0.8064 0.8174
vt 0.0157 0.4054
vt 0.0379 0.2795
vt 0.1277 0.4051
vt 0.0918 0.4535
vt 0.8138 0.7539
vt 0.7918 0.7289
vt 0.8964 0.6740
vt 0.2274 0.5391
vt 0.2032 0.5672
vt 0.1457 0.5246
vt 0.8683 0.6428
vt 0.9312 0.5428
vt 0.2179 0.6452
vt 0.2347 0.6289
vt 0.2411 0.6631
vt 0.1847 0.5926
vt 0.9501 0.5070
vt 0.9072 0.4615
vt 0.9381 0.4202
vt 0.2728 0.6811
vt 0.2423 0.7157
vt 0.8724 0.4886
vt 0.9148 0.3603
vt 0.9539 0.3467
vt 0.2672 0.7910
vt 0.2292 0.8625
vt 0.2409 0.7739
vt 0.8775 0.3052
vt 0.9288 0.2608
vt 0.1637 0.9077
vt 0.1659 0.9425
vt 0.1201 0.9481
vt 0.8656 0.1223
vt 0.8197 0.0841
vt 0.8863 0.1017
vt 0.0433 0.8598
vt 0.0112 0.8739
vt 0.0431 0.8267
vt 0.7961 0.1194
vt 0.7481 0.1594
vt 0.7376 0.1070
vt 0.1513 0.8769
vt 0.1000 0.8916
vt 0.7789 0.7912
vt 0.0496 0.4735
vt 0.1594 0.4905
vt 0.1066 0.5281
vt 0.9331 0.6960
vt 0.8496 0.7502
vt 0.2159 0.7055
vt 0.9616 0.5552
vt 0.2725 0.6356
vt 0.8748 0.5726
vt 0.9840 0.2463
vt 0.2646 0.7379
vt 0.2170 0.8060
vt 0.8707 0.1776
vt 0.9035 0.1517
vt 0.9288 0.1396
vt 0.0644 0.9274
vt 0.4618 0.5200
vt 0.3853 0.4534
vt 0.4626 0.4490
vt 0.5351 0.3992
vt 0.4637 0.3980
vt 0.4638 0.3322
vt 0.5995 0.1701
vt 0.6173 0.2040
vt 0.5429 0.2562
vt 0.6637 0.4679
vt 0.6663 0.5105
vt 0.5844 0.4979
vt 0.7807 0.3957
vt 0.6899 0.3623
vt 0.7503 0.3108
vt 0.6226 0.1306
vt 0.5665 0.1025
vt 0.5882 0.0657
vt 0.5122 0.0424
vt 0.4945 0.0825
vt 0.3504 0.0713
vt 0.4851 0.1130
vt 0.4236 0.1212
vt 0.5429 0.4764
vt 0.7386 0.4893
vt 0.3375 0.4226
vt 0.3002 0.4819
vt 0.3834 0.1230
vt 0.4040 0.1738
vt 0.3559 0.1567
vt 0.7438 0.2024
vt 0.8056 0.2981
vt 0.7084 0.2375
vt 0.3967 0.2545
vt 0.3696 0.2498
vt 0.5532 0.1254
vt 0.3870 0.6045
vt 0.3963 0.6312
vt 0.3557 0.6200
vt 0.5874 0.6337
vt 0.5213 0.6596
vt 0.5078 0.5984
vt 0.6547 0.6437
vt 0.6312 0.6111
vt 0.4207 0.6521
vt 0.4533 0.5994
vt 0.2650 0.3424
vt 0.2817 0.4422
vt 0.2413 0.4797
vt 0.6278 0.8383
vt 0.5880 0.8180
vt 0.6064 0.7089
vt 0.2088 0.4139
vt 0.2121 0.4948
vt 0.2415 0.4942
vt 0.2438 0.5222
vt 0.7891 0.4495
vt 0.8352 0.4032
vt 0.8082 0.4784
vt 0.2619 0.4871
vt 0.5381 0.4483
vt 0.5939 0.4332
vt 0.5990 0.4486
vt 0.5882 0.4086
vt 0.3852 0.3843
vt 0.4761 0.2437
vt 0.3941 0.3264
vt 0.6344 0.2596
vt 0.6180 0.3668
vt 0.3580 0.3606
vt 0.3184 0.3042
vt 0.3422 0.2247
vt 0.2975 0.2155
vt 0.2624 0.1993
vt 0.2113 0.3520
vt 0.2998 0.1054
vt 0.6765 0.2521
vt 0.6455 0.1917
vt 0.6634 0.1844
vt 0.6425 0.1563
vt 0.3626 0.5149
vt 0.7454 0.4473
vt 0.6826 0.4141
vt 0.5016 0.5625
vt 0.4440 0.5751
vt 0.3695 0.8762
vt 0.2803 0.8821
vt 0.3071 0.8058
vt 0.3747 0.8063
vt 0.3666 0.9151
vt 0.3199 0.9418
vt 0.2647 0.9441
vt 0.6495 0.7146
vt 0.5059 0.7220
vt 0.4384 0.7709
vt 0.3774 0.7581
vt 0.3274 0.7241
vt 0.5160 0.8117
vt 0.4306 0.8129
vt 0.5127 0.7729
vt 0.4318 0.8929
vt 0.5261 0.8859
vt 0.5285 0.9355
vt 0.4241 0.9346
vt 0.5926 0.8877
vt 0.5969 0.9328
vt 0.6659 0.8355
vt 0.6778 0.8775
vt 0.6435 0.8862
vt 0.6490 0.9211
vt 0.2833 0.5347
vt 0.6677 0.9411
vt 0.6935 0.9347
vn -0.7687 0.5592 -0.3105
vn -0.8635 -0.3631 0.3501
vn -0.6280 0.7781 -0.0117
vn -0.1896 -0.6224 -0.7594
vn 0.6173 0.4728 -0.6289
vn 0.8603 -0.2056 -0.4665
vn 0.0179 -0.9209 0.3893
vn -0.4864 0.0744 0.8706
vn 0.3176 -0.5152 -0.7960
vn -0.0960 0.4872 0.8680
vn 0.9042 -0.1478 0.4006
vn -0.7092 0.1133 0.6958
vn -0.7670 0.0142 -0.6415
vn 0.4306 0.0657 -0.9002
vn 0.5027 -0.4621 -0.7306
vn 0.8868 -0.1732 0.4284
vn -0.9790 -0.2038 -0.0080
vn 0.7614 -0.6061 0.2301
vn 0.6076 0.5323 -0.5894
vn 0.8702 0.4568 0.1847
vn -0.3133 0.9411 0.1267
vn -0.7232 -0.1361 -0.6771
vn -0.0372 0.9280 0.3706
vn 0.6752 -0.0868 0.7325
vn 0.2985 -0.9457 -0.1282
vn -0.2089 0.5724 -0.7929
vn -0.1252 0.7739 0.6208
vn -0.7165 0.1277 0.6859
vn 0.1966 -0.4652 0.8631
vn -0.0086 -0.9997 -0.0231
vn 0.4553 0.7902 -0.4102
vn -0.8860 -0.0475 0.4612
vn -0.5965 0.7812 -0.1839
vn -0.7199 0.2887 -0.6312
vn 0.5048 0.1677 -0.8468
vn -0.6743 -0.2687 -0.6878
vn -0.3557 -0.3442 0.8689
vn -0.3335 -0.9186 -0.2122
vn 0.8328 -0.2785 0.4785
vn 0.6289 -0.3802 -0.6781
vn 0.8746 -0.4130 0.2539
vn -0.7888 0.0882 0.6082
vn 0.5985 -0.4961 0.6291
vn -0.9333 -0.0522 -0.3552
vn -0.5359 0.7964 -0.2802
vn 0.5012 0.6919 -0.5197
vn 0.0338 0.7645 -0.6438
vn -0.2920 0.7092 0.6417
vn -0.1304 0.6603 0.7396
vn 0.1101 0.0090 0.9939
vn -0.1180 0.0391 0.9922
vn -0.0350 -0.2200 0.9749
vn 0.3681 -0.6707 0.6440
vn 0.3841 -0.3475 0.8554
vn 0.1043 -0.2340 0.9666
vn 0.1189 0.9769 0.1773
vn -0.7222 0.6170 -0.3126
vn -0.0601 0.6777 -0.7329
vn 0.7908 -0.0312 -0.6113
vn 0.8814 0.0967 0.4624
vn 0.8165 -0.1373 -0.5608
vn 0.4886 -0.5452 -0.6812
vn 0.3598 -0.9323 -0.0356
vn 0.3326 -0.5905 -0.7353
vn -0.0255 -0.6592 -0.7515
vn -0.0807 -0.9931 -0.0849
vn -0.4895 -0.4688 -0.7353
vn -0.0440 -0.6898 0.7227
vn -0.3456 -0.7791 0.5231
vn 0.0595 0.9739 -0.2189
vn -0.4650 0.8697 0.1657
vn -0.7161 0.1902 0.6715
vn -0.1156 0.8435 0.5245
vn -0.5750 -0.7178 0.3926
vn -0.4632 -0.3118 0.8296
vn -0.7516 -0.3848 0.5358
vn -0.1599 -0.1175 -0.9801
vn -0.3356 -0.2563 -0.9065
vn 0.7502 -0.2495 -0.6124
vn -0.0774 -0.2373 0.9683
vn -0.2513 -0.1491 0.9564
vn 0.2297 -0.7342 0.6389
vn 0.2707 0.2736 -0.9230
vn 0.3282 -0.6107 -0.7206
vn 0.0061 0.1995 -0.9799
vn 0.0146 0.3795 -0.9251
vn -0.0462 0.1818 -0.9823
vn -0.7318 -0.0118 -0.6815
vn -0.0177 0.2593 -0.9656
vn 0.1327 0.1533 -0.9792
vn -0.9948 -0.0098 0.1016
vn -0.7396 0.1836 0.6475
vn -0.9164 0.3898 0.0906
vn 0.4806 0.0736 -0.8739
vn 0.4149 0.1190 -0.9020
vn 0.1526 0.1545 -0.9761
vn -0.4326 -0.0913 -0.8969
vn -0.3973 0.3602 -0.8440
vn -0.1863 0.9769 -0.1045
vn 0.6008 0.6438 -0.4739
vn 0.4966 0.6072 -0.6202
vn -0.4526 -0.1708 -0.8752
vn -0.4172 0.6127 -0.6712
vn -0.0784 0.7641 0.6403
vn 0.0505 0.7563 0.6523
vn 0.5221 0.6114 0.5946
vn 0.3143 0.9443 -0.0971
vn 0.4848 0.0302 0.8741
vn -0.3605 0.0260 0.9324
vn 0.0043 -0.2661 0.9639
vn -0.1836 -0.1113 0.9767
vn 0.4848 -0.1335 0.8644
vn 0.5284 -0.0655 0.8465
vn -0.6071 0.0559 0.7927
vn -0.8776 0.1408 0.4582
vn -0.8356 -0.1928 0.5144
vn -0.9860 -0.0017 -0.1669
vn -0.6524 0.0633 -0.7552
vn -0.4542 -0.0921 -0.8861
vn 0.8920 -0.1694 0.4191
vn 0.7237 -0.6252 0.2924
vn 0.4955 -0.5332 -0.6857
vn 0.2116 0.8157 -0.5385
vn 0.6045 0.7363 0.3041
vn 0.7293 0.4762 0.4913
vn -0.7591 -0.0143 -0.6508
vn -0.5949 0.0367 -0.8030
vn -0.0043 0.1403 -0.9901
vn -0.1610 0.3262 -0.9315
vn -0.3767 0.0994 -0.9210
vn 0.0769 0.2484 -0.9656
vn -0.2606 0.2499 -0.9325
vn 0.0398 0.2360 -0.9709
vn -0.3222 0.0828 -0.9430
vn 0.1082 0.0881 -0.9902
vn 0.4811 0.1081 -0.8700
vn 0.5338 0.0689 -0.8428
vn 0.6757 0.4018 -0.6180
usemtl None.002
s 1
f 1/1/1 2/2/2 3/3/3
f 1/1/1 4/4/4 2/2/2
f 5/5/5 1/6/1 6/7/6
f 2/2/2 7/8/7 8/9/8
f 6/7/6 7/10/7 4/11/4
f 3/12/3 9/13/9 6/7/6
f 10/14/10 11/15/11 12/16/12
f 13/17/13 14/18/14 15/19/15
f 16/20/16 17/21/17 12/16/12
f 18/22/18 19/23/19 20/24/20
f 16/25/16 19/23/19 18/22/18
f 21/26/21 22/27/22 23/28/23
f 21/29/21 24/30/24 20/24/20
f 22/27/22 25/31/25 26/32/26
f 26/32/26 27/33/27 23/28/23
f 27/34/27 28/35/28 29/36/29
f 26/32/26 30/37/30 31/38/31
f 32/39/32 33/40/33 34/41/34
f 35/42/35 36/43/36 34/44/34
f 37/45/37 38/46/38 39/47/39
f 40/48/40 39/49/39 38/50/38
f 41/51/41 42/52/42 39/47/39
f 1/6/1 5/5/5 4/11/4
f 4/11/4 5/5/5 6/7/6
f 4/4/4 7/8/7 2/2/2
f 1/6/1 3/12/3 6/7/6
f 3/3/3 2/2/2 8/9/8
f 7/8/7 43/53/43 8/9/8
f 9/13/9 43/54/43 7/10/7 6/7/6
f 44/55/44 15/19/15 9/13/9 3/12/3
f 11/56/11 43/54/43 9/13/9 15/19/15
f 10/14/10 8/9/8 43/53/43 11/15/11
f 12/16/12 13/57/13 44/58/44 10/14/10
f 16/25/16 11/56/11 15/19/15 14/18/14
f 44/55/44 13/17/13 15/19/15
f 16/25/16 14/18/14 19/23/19
f 25/59/25 18/22/18 20/24/20 24/30/24
f 12/16/12 11/15/11 16/20/16
f 45/60/45 13/57/13 12/16/12 17/21/17
f 45/61/45 19/23/19 14/18/14 13/17/13
f 20/24/20 19/23/19 45/61/45 21/29/21
f 25/31/25 22/27/22 17/21/17 18/62/18
f 17/21/17 21/26/21 45/60/45
f 17/21/17 16/20/16 18/62/18
f 31/38/31 28/63/28 27/33/27 26/32/26
f 21/26/21 17/21/17 22/27/22
f 22/27/22 26/32/26 23/28/23
f 21/29/21 23/64/23 24/30/24
f 26/32/26 25/31/25 30/37/30
f 30/65/30 25/59/25 24/30/24 29/36/29
f 29/36/29 24/30/24 23/64/23 27/34/27
f 41/66/41 46/67/46 31/38/31 30/37/30
f 28/35/28 33/40/33 32/39/32
f 10/14/10 44/58/44 3/3/3 8/9/8
f 30/65/30 29/36/29 28/35/28
f 41/66/41 35/42/35 46/67/46
f 41/51/41 30/65/30 28/35/28 32/39/32
f 33/68/33 28/63/28 31/38/31 46/67/46
f 34/44/34 33/68/33 46/67/46 35/42/35
f 42/52/42 32/39/32 34/41/34 36/69/36
f 38/46/38 37/45/37 42/52/42 36/69/36
f 40/48/40 35/42/35 41/66/41 39/49/39
f 41/51/41 32/39/32 42/52/42
f 36/43/36 40/48/40 38/50/38
f 39/47/39 42/52/42 37/45/37
f 36/43/36 35/42/35 40/48/40
f 47/70/47 48/71/48 49/72/49
f 50/73/50 51/74/51 52/75/52
f 53/76/53 54/77/54 55/78/55
f 56/79/56 57/80/57 58/81/58
f 59/82/59 60/83/60 61/84/61
f 62/85/62 63/86/63 64/87/64
f 65/88/65 66/89/66 67/90/67
f 66/89/66 68/91/68 69/92/69
f 47/70/47 70/93/70 58/81/58
f 71/94/71 57/80/57 56/79/56
f 72/95/72 48/71/48 73/96/73
f 74/97/74 75/98/75 76/99/76
f 77/100/77 78/101/78 61/84/61 79/102/79
f 80/103/80 81/104/81 75/98/75
f 69/92/69 75/98/75 74/97/74
f 55/78/55 82/105/82 53/76/53
f 62/106/62 83/107/83 84/108/84
f 85/109/85 86/110/86 87/111/87
f 88/112/88 85/109/85 67/113/67
f 89/114/89 83/107/83 90/115/90
f 91/116/91 92/117/92 93/118/93
f 94/119/94 95/120/95 96/121/96
f 97/122/97 93/118/93 98/123/98
f 98/123/98 99/124/99 100/125/100
f 101/126/101 59/82/59 102/127/102 103/128/103
f 93/118/93 104/129/104 99/124/99
f 105/130/105 106/131/106 107/132/107 70/93/70
f 49/72/49 105/130/105 70/93/70 47/70/47
f 105/130/105 50/73/50 108/133/108 106/131/106
f 49/72/49 51/74/51 50/73/50 105/130/105
f 109/134/109 51/74/51 49/72/49 48/71/48
f 69/92/69 68/91/68 110/135/110 80/103/80
f 111/136/111 80/103/80 110/135/110 52/75/52
f 109/134/109 111/136/111 52/75/52 51/74/51
f 110/135/110 68/91/68 82/105/82 55/78/55
f 52/75/52 110/135/110 55/78/55 50/73/50
f 55/78/55 112/137/112 113/138/113 50/73/50
f 54/77/54 112/137/112 55/78/55
f 114/139/114 81/104/81 80/103/80 111/136/111
f 115/140/115 116/141/116 81/104/81 114/139/114
f 111/136/111 109/134/109 114/139/114
f 114/139/114 91/116/91 115/140/115
f 117/142/117 116/141/116 115/140/115 91/116/91
f 118/143/118 117/142/117 91/116/91 119/144/119
f 116/141/116 76/99/76 75/98/75 81/104/81
f 118/143/118 88/145/88 76/99/76 117/142/117
f 76/99/76 116/141/116 117/142/117
f 88/145/88 67/90/67 74/97/74 76/99/76
f 60/83/60 120/146/120 79/102/79 61/84/61
f 112/137/112 120/146/120 60/83/60 113/138/113
f 120/146/120 121/147/121 122/148/122 79/102/79
f 112/137/112 54/77/54 121/147/121 120/146/120
f 63/86/63 66/89/66 65/88/65 64/87/64
f 84/149/84 122/148/122 121/147/121
f 121/147/121 54/77/54 53/76/53
f 63/86/63 53/76/53 82/105/82
f 82/105/82 68/91/68 66/89/66 63/86/63
f 107/132/107 56/79/56 58/81/58 70/93/70
f 67/90/67 66/89/66 74/97/74
f 74/97/74 66/89/66 69/92/69
f 47/70/47 123/150/123 48/71/48
f 92/117/92 72/95/72 73/96/73
f 71/94/71 124/151/124 101/126/101 103/128/103
f 56/79/56 125/152/125 124/151/124 71/94/71
f 106/131/106 125/152/125 56/79/56 107/132/107
f 121/147/121 63/86/63 62/85/62 84/149/84
f 125/152/125 60/83/60 59/82/59 124/151/124
f 63/86/63 121/147/121 53/76/53
f 59/82/59 101/126/101 124/151/124
f 72/95/72 114/139/114 109/134/109 48/71/48
f 72/95/72 92/117/92 91/116/91 114/139/114
f 119/144/119 91/116/91 93/118/93 97/122/97
f 106/131/106 108/133/108 113/138/113 60/83/60 125/152/125
f 50/73/50 113/138/113 108/133/108
f 69/92/69 80/103/80 75/98/75
f 77/100/77 79/102/79 122/148/122 84/149/84
f 59/82/59 61/84/61 78/101/78 102/127/102
f 87/111/87 65/153/65 67/113/67 85/109/85
f 90/115/90 64/154/64 65/153/65 87/111/87
f 83/107/83 62/106/62 64/154/64 90/115/90
f 126/155/126 102/156/102 78/157/78 127/158/127
f 57/159/57 71/160/71 103/161/103 102/156/102 126/155/126
f 85/109/85 88/112/88 118/162/118 96/121/96
f 89/114/89 86/110/86 128/163/128 129/164/129
f 89/114/89 130/165/130 77/166/77 84/108/84
f 131/167/131 132/168/132 129/164/129 133/169/133
f 129/164/129 128/163/128 133/169/133
f 134/170/134 132/168/132 131/167/131 135/171/135
f 47/172/47 58/173/58 134/170/134 135/171/135
f 134/170/134 58/173/58 57/159/57 126/155/126
f 132/168/132 134/170/134 126/155/126 127/158/127
f 136/174/136 123/175/123 47/172/47 135/171/135
f 95/120/95 131/167/131 133/169/133 96/121/96
f 130/165/130 127/158/127 78/157/78 77/166/77
f 130/165/130 89/114/89 129/164/129
f 129/164/129 132/168/132 127/158/127 130/165/130
f 86/110/86 85/109/85 96/121/96 128/163/128
f 96/121/96 133/169/133 128/163/128
f 95/120/95 136/174/136 135/171/135 131/167/131
f 83/107/83 89/114/89 84/108/84
f 89/114/89 90/115/90 87/111/87 86/110/86
f 118/162/118 119/176/119 94/119/94 96/121/96
f 119/176/119 97/177/97 137/178/137 94/119/94
f 137/178/137 138/179/138 123/175/123 136/174/136
f 136/174/136 95/120/95 94/119/94 137/178/137
f 138/179/138 137/178/137 97/177/97
f 123/150/123 138/180/138 73/96/73 48/71/48
f 100/181/100 138/179/138 97/177/97 98/182/98
f 93/118/93 92/117/92 104/129/104
f 92/117/92 73/96/73 104/129/104
f 104/129/104 73/96/73 138/180/138 100/125/100
f 99/124/99 98/123/98 93/118/93
f 99/124/99 104/129/104 100/125/100
