# Blender v2.77 (sub 0) OBJ File: 'Heart.blend'
# www.blender.org
mtllib HeartLP.mtl
o heart_3k.001_heart_3k
v 1.215490 -0.799085 0.143544
v 0.655108 0.847552 -0.144556
v 0.326835 0.841315 0.567710
v 0.512191 -0.469677 0.947005
v 0.817950 0.057755 0.622704
v -1.031115 -0.047769 0.370409
v -1.118262 0.559799 -0.180885
v -1.183256 0.376255 -0.254943
v -0.875286 0.170942 -1.161911
v -1.067638 0.921236 -0.282313
v -0.893433 1.101439 -0.127231
v -0.614512 1.410862 0.306021
v -0.997064 0.412932 0.192653
v 0.156483 1.797077 -0.141071
v -0.300201 1.184437 0.499328
v 0.195589 -0.317803 0.949309
v 0.496630 -1.169779 -0.258717
v -0.061622 -1.040695 -0.233364
v 0.569627 -1.212421 0.374650
v -0.405103 -0.589782 0.823941
v 0.925895 0.399667 -0.081116
v 0.928798 0.058151 -0.603793
v 0.616917 0.418235 -0.944407
v 0.112976 -0.255520 -1.227791
v 0.638043 -0.784146 -0.844642
v 1.088665 -0.659685 -0.469080
v 1.028051 -1.177976 0.537151
v -0.090743 1.865801 0.202997
v -0.552787 -0.905255 0.227792
v 0.273575 1.420718 -0.047889
v 0.468561 1.171925 0.121868
v -0.792930 1.027288 0.216495
v -0.769135 0.595049 0.447896
v -0.244699 1.592373 0.405062
v -0.040732 0.744782 0.706635
v -0.336894 0.361792 0.819336
v -0.761910 -0.977234 -0.002013
v -0.180710 -0.979953 0.547166
v 1.157024 -0.063127 0.194451
v 0.536777 0.765787 -0.581597
v 0.062219 0.179157 -1.295524
v -0.894358 -0.940476 -0.616583
v 0.477037 0.324201 0.727023
v 0.783921 -0.638965 0.816621
v -0.365431 -0.922277 -0.372007
v -1.014599 0.048011 -0.780179
v -0.969194 -1.002977 -0.142749
v -1.142385 -0.467718 -0.465736
v -0.354404 -0.192449 -1.251177
v -0.942821 0.358998 -0.785187
v -0.766393 -0.391447 -0.859077
v -0.420847 -0.635139 -0.720349
v -0.578367 0.742012 -0.674198
v -0.046450 0.809455 -0.541062
v -0.595958 2.054806 0.152600
v -0.143983 1.371839 -0.313621
v -0.636391 1.262421 -0.236927
v -0.251420 1.781112 -0.130706
v -0.276073 2.001566 0.004427
v -1.125693 0.431453 -0.472481
v -0.501977 2.238108 0.046964
v -1.026934 1.010303 -0.256373
v -0.354238 -0.748500 -0.577932
v -0.159519 0.490801 0.799833
v 0.057896 1.890942 -0.305135
v -1.088806 0.741406 -0.235439
v 0.756989 0.717153 -0.076554
v -1.047414 0.859250 -0.488334
v 0.020482 1.737649 0.168216
v -0.445686 -0.936385 0.384731
v -0.250243 1.414694 0.410676
v 0.950258 -1.016320 0.770797
v 0.379445 1.135681 0.338617
v 0.495393 -0.476488 0.982748
v -0.161073 1.002204 -0.368016
v 1.230729 -0.850147 -0.116745
v -0.071903 0.486290 -1.277301
v 0.982779 -0.245806 -0.636978
v -0.589916 0.487018 0.686150
v 0.998464 0.167377 -0.307623
v -0.190217 1.005628 0.572126
v 0.370846 0.213874 -1.233512
v 0.414325 0.553572 0.643882
v 0.741049 0.275320 -0.784548
v 0.589302 0.618992 -0.773357
v -0.991401 0.202511 0.318675
v -0.361023 0.892492 -0.524879
v 1.301266 -0.509726 0.154778
v -0.670893 1.791867 0.182411
v 0.787969 -1.156690 0.408287
v 1.028122 0.223821 0.026171
v -1.237027 0.017065 -0.344440
v 0.397829 1.245210 0.044900
v -0.890291 0.514704 0.319870
v 0.655508 -0.647822 0.903658
v -0.749141 -0.255005 0.711242
v 0.622348 -1.079878 -0.596089
v 1.197814 -1.102035 0.352041
v -0.249893 -1.041706 0.076009
v 0.022237 -0.070227 -1.346407
v -1.129581 -0.228610 0.128822
v -0.362185 -0.858833 0.613598
v 0.349655 0.675069 -0.588857
v 0.180179 1.402274 -0.227646
v -0.126746 1.726674 0.357104
v 0.178177 -1.091759 -0.283277
v -0.116529 -0.507666 0.944855
v 0.990320 0.063872 0.450137
v -1.092152 0.496417 -0.052011
v 0.599507 1.018057 -0.016993
v 0.901039 -0.776393 -0.676271
v -0.399880 1.234096 0.451857
v 0.414443 -0.491604 -1.069282
v -0.087768 -0.374808 -1.165281
v -0.700096 1.386112 0.260759
v -0.775891 0.788598 0.294596
v -1.145949 0.447312 -0.203854
v -0.776453 1.207675 -0.243091
v -0.875298 -1.039772 -0.086983
v -0.095302 2.088717 0.072921
v 0.155701 0.776441 0.669225
v 0.629671 0.792171 -0.365514
v -0.022744 0.048357 0.933146
v -0.435042 2.005842 0.322161
v 0.581632 -1.241751 0.085757
v 0.250677 -1.136012 0.540932
v 0.249842 1.679532 -0.151781
v -0.882043 1.126514 0.031188
v 0.628861 0.320237 0.635197
v 0.494156 -0.103802 0.916350
v 0.854299 -0.348814 0.751301
v -0.554608 -1.081639 -0.217923
v -0.162638 -0.979940 -0.438859
v -0.739946 -0.839794 0.145653
v -0.896652 -0.004430 -0.886137
v -1.021741 0.227025 -0.793608
v -1.065558 -0.735156 -0.105464
v -0.938546 -1.031582 -0.530482
v -0.921890 0.232175 -1.020954
v -0.912803 0.413371 -1.030618
v -0.567055 -0.576001 -0.840781
v -0.776015 -0.669885 -0.763111
v -1.006402 -0.591704 -0.707871
v -0.971550 -0.141750 -1.046085
v -0.672876 -0.242196 -1.117064
v -0.181537 -0.542462 -1.019480
v -0.604725 -0.920587 -0.619626
v -0.944472 0.085008 -1.333159
v -1.107147 -0.179144 -0.768065
v -1.004753 -0.775214 -0.636072
v -0.432105 1.308078 -0.294632
v -0.388027 1.685149 -0.145090
v -0.302269 1.852566 -0.091208
v -0.911444 1.037409 -0.553385
v 0.071338 1.785941 -0.368274
v -0.406537 0.199037 -1.353356
v -0.733214 1.765831 0.031891
v -0.284296 2.268928 0.221926
v -0.400492 1.514644 0.330000
v 1.219658 -0.314604 -0.218039
v 1.226003 -0.756187 0.606423
v 1.033799 -1.170883 -0.098085
v -0.044462 1.930220 -0.027546
v 0.328172 0.599219 -1.096434
v 0.485530 0.862523 -0.257888
v 0.648187 0.847153 0.289025
v 0.766846 0.568786 -0.421078
v 0.078000 1.386298 0.345576
v 0.380817 0.098531 0.962535
v 0.421277 -0.956965 0.784410
v -1.007441 -0.674597 0.293985
v -0.587515 0.148310 0.841605
v -1.156163 0.185732 0.003130
v -1.014340 0.798750 -0.075205
v -1.075669 0.588934 -0.492314
v -1.188726 0.134895 -0.691864
v 0.132288 -0.835147 -0.891599
v -0.884512 0.129938 -0.869457
v -0.481246 0.794489 0.612666
v 0.065796 -1.155876 0.245790
v 0.538153 -0.196865 -1.182629
v 0.679068 -0.221807 0.848203
v -0.594482 -1.050907 -0.547919
v -0.450120 -0.960267 -0.092356
v -1.110432 -0.836164 -0.400530
v -0.648479 -0.705229 -0.763012
v -0.971653 -0.672278 -0.741983
v -0.843180 -0.249309 -0.882614
v -0.905756 -0.173348 -1.319442
v -0.449702 -0.471903 -1.027676
vt 0.3325 0.2089
vt 0.3150 0.2016
vt 0.3291 0.1561
vt 0.3459 0.1914
vt 0.3570 0.2246
vt 0.3343 0.2312
vt 0.3032 0.2274
vt 0.7136 0.8971
vt 0.7476 0.8675
vt 0.8023 0.9131
vt 0.7228 0.9332
vt 0.6475 0.9510
vt 0.6657 0.8999
vt 0.6835 0.8638
vt 0.5624 0.1814
vt 0.5132 0.1992
vt 0.5288 0.1030
vt 0.6138 0.1273
vt 0.6901 0.1630
vt 0.5663 0.2184
vt 0.4618 0.2516
vt 0.4060 0.2619
vt 0.4377 0.2483
vt 0.4065 0.2655
vt 0.3658 0.2828
vt 0.3874 0.2577
vt 0.4175 0.2367
vt 0.4287 0.1989
vt 0.3978 0.2277
vt 0.4135 0.1763
vt 0.4682 0.1945
vt 0.5112 0.4728
vt 0.4851 0.5314
vt 0.3822 0.4980
vt 0.4616 0.4055
vt 0.5124 0.3634
vt 0.5584 0.4638
vt 0.5791 0.5335
vt 0.4443 0.5971
vt 0.4311 0.5716
vt 0.4928 0.5723
vt 0.4791 0.6047
vt 0.4578 0.6539
vt 0.4230 0.6032
vt 0.3653 0.5711
vt 0.4098 0.6153
vt 0.4279 0.6519
vt 0.3839 0.6893
vt 0.3532 0.6438
vt 0.4035 0.7602
vt 0.4017 0.7750
vt 0.3859 0.7806
vt 0.3758 0.7627
vt 0.3490 0.7565
vt 0.3794 0.7376
vt 0.3944 0.7318
vt 0.4150 0.7459
vt 0.4316 0.8152
vt 0.5090 0.6124
vt 0.5015 0.6441
vt 0.5246 0.6088
vt 0.5334 0.6529
vt 0.5537 0.5878
vt 0.5611 0.5580
vt 0.6906 0.5490
vt 0.5833 0.6151
vt 0.7580 0.3031
vt 0.8404 0.2824
vt 0.8590 0.3128
vt 0.7635 0.3236
vt 0.6176 0.3206
vt 0.6985 0.2739
vt 0.7593 0.2524
vt 0.6062 0.4679
vt 0.6120 0.4296
vt 0.7058 0.4749
vt 0.6463 0.5098
vt 0.7696 0.6955
vt 0.8240 0.6952
vt 0.8546 0.7681
vt 0.7651 0.7147
vt 0.7444 0.6882
vt 0.7541 0.6806
vt 0.7861 0.6547
vt 0.6786 0.2593
vt 0.6344 0.2544
vt 0.7231 0.2289
vt 0.4301 0.2873
vt 0.4765 0.2957
vt 0.4208 0.3238
vt 0.2665 0.2609
vt 0.2415 0.2287
vt 0.3017 0.2670
vt 0.3097 0.3207
vt 0.2431 0.2956
vt 0.1395 0.2416
vt 0.2394 0.3339
vt 0.1953 0.3443
vt 0.2886 0.3672
vt 0.2602 0.4098
vt 0.3255 0.2727
vt 0.3310 0.2565
vt 0.3403 0.3001
vt 0.4151 0.3604
vt 0.3730 0.3693
vt 0.4112 0.0918
vt 0.3963 0.1234
vt 0.3587 0.0934
vt 0.3956 0.0173
vt 0.4636 0.0549
vt 0.3095 0.0801
vt 0.2823 0.1197
vt 0.1650 0.0742
vt 0.2963 0.0173
vt 0.5444 0.9307
vt 0.5847 0.9101
vt 0.5567 0.9753
vt 0.4285 0.9753
vt 0.4782 0.9118
vt 0.5291 0.8778
vt 0.3914 0.9056
vt 0.4180 0.8805
vt 0.3593 0.9748
vt 0.2689 0.9351
vt 0.3604 0.8802
vt 0.2133 0.1865
vt 0.1556 0.1391
vt 0.2550 0.1814
vt 0.2877 0.1754
vt 0.3412 0.2425
vt 0.3550 0.2473
vt 0.8345 0.6649
vt 0.8075 0.6264
vt 0.8364 0.5800
vt 0.8695 0.6872
vt 0.3250 0.4163
vt 0.3421 0.3900
vt 0.3245 0.4567
vt 0.7666 0.7614
vt 0.7729 0.8094
vt 0.7284 0.7446
vt 0.7831 0.8342
vt 0.8297 0.8385
vt 0.7097 0.3817
vt 0.6591 0.3941
vt 0.7515 0.4076
vt 0.6107 0.3929
vt 0.5692 0.3542
vt 0.7584 0.2125
vt 0.8501 0.2150
vt 0.7752 0.1768
vt 0.8959 0.1696
vt 0.5747 0.2524
vt 0.5429 0.2888
vt 0.5327 0.3207
vt 0.1775 0.7155
vt 0.1502 0.6928
vt 0.1717 0.6258
vt 0.1997 0.7146
vt 0.2278 0.7725
vt 0.1891 0.7596
vt 0.1547 0.7666
vt 0.3545 0.3483
vt 0.3804 0.1650
vt 0.6233 0.8916
vt 0.6056 0.8609
vt 0.4530 0.8722
vt 0.4825 0.8381
vt 0.2536 0.7463
vt 0.2625 0.7260
vt 0.2856 0.7426
vt 0.2882 0.7664
vt 0.2805 0.7828
vt 0.2447 0.7790
vt 0.2418 0.7387
vt 0.2507 0.7109
vt 0.4799 0.2142
vt 0.3817 0.2469
vt 0.1962 0.8092
vt 0.2439 0.8256
vt 0.1864 0.8534
vt 0.3804 0.7162
vt 0.3482 0.7142
vt 0.4051 0.7103
vt 0.2145 0.7108
vt 0.2293 0.6752
vt 0.2939 0.6926
vt 0.2705 0.5789
vt 0.2948 0.7352
vt 0.3825 0.8344
vt 0.3207 0.8690
vt 0.3303 0.8242
vt 0.3639 0.7945
vt 0.4259 0.7101
vt 0.4376 0.7415
vt 0.3292 0.7679
vt 0.3009 0.7999
vt 0.2758 0.8199
vt 0.5215 0.7235
vt 0.5742 0.7340
vt 0.5929 0.7873
vt 0.6241 0.7444
vt 0.8806 0.2472
vt 0.9233 0.2252
vt 0.6802 0.7016
vt 0.6371 0.6638
vt 0.6094 0.6310
vt 0.7075 0.6224
vt 0.7345 0.6345
vt 0.7427 0.6190
vt 0.7751 0.6072
vt 0.7922 0.5460
vn 0.9729 -0.2164 -0.0812
vn 0.9129 -0.2752 -0.3014
vn 0.9501 0.1648 -0.2648
vn 0.9933 0.0982 0.0608
vn 0.8398 -0.0343 0.5418
vn 0.7406 -0.6618 0.1165
vn 0.5307 -0.8078 -0.2566
vn 0.7197 0.6463 -0.2537
vn 0.7434 0.6445 -0.1786
vn 0.7685 0.4904 0.4109
vn 0.8673 0.4936 -0.0650
vn 0.8283 0.4838 -0.2825
vn 0.4969 0.7953 -0.3473
vn 0.3294 0.7474 -0.5770
vn 0.4869 0.4462 0.7509
vn 0.5173 0.4324 0.7385
vn 0.5867 0.5907 0.5540
vn 0.4871 0.4593 0.7428
vn 0.2317 0.4561 0.8592
vn 0.3313 0.2638 0.9059
vn 0.4067 -0.0249 0.9132
vn 0.5865 0.2264 0.7777
vn 0.1832 -0.1469 0.9720
vn -0.0415 -0.6016 0.7977
vn 0.2618 -0.1581 0.9521
vn 0.5036 0.2146 0.8368
vn 0.6104 0.3481 0.7115
vn 0.5711 0.2065 0.7945
vn 0.7767 0.3877 0.4964
vn 0.5617 0.4025 0.7228
vn -0.8447 0.0598 0.5319
vn -0.9467 -0.0848 0.3107
vn -0.7510 -0.4649 0.4689
vn -0.6372 -0.1375 0.7583
vn -0.4588 0.1638 0.8733
vn -0.8284 0.1952 0.5250
vn -0.9477 0.1096 0.2998
vn -0.9673 0.2199 0.1263
vn -0.8988 0.2490 0.3607
vn -0.8738 0.2722 0.4029
vn -0.9743 0.1935 0.1154
vn -0.8868 0.2960 -0.3550
vn -0.9677 0.2349 0.0910
vn -0.9720 0.2324 0.0340
vn -0.9391 0.2483 -0.2374
vn -0.8372 0.1560 -0.5241
vn -0.9999 -0.0155 -0.0022
vn -0.8183 0.5384 -0.2015
vn -0.6441 0.3329 -0.6887
vn -0.5405 -0.5313 -0.6523
vn -0.9448 -0.3277 -0.0057
vn -0.7663 -0.2309 -0.5996
vn -0.9118 0.0366 -0.4090
vn -0.8807 -0.0691 -0.4687
vn -0.9133 0.0554 -0.4035
vn -0.1090 0.2495 -0.9622
vn -0.9502 0.3088 0.0409
vn -0.7481 0.4392 -0.4974
vn -0.8328 0.5520 0.0417
vn -0.3556 0.6199 -0.6995
vn -0.8637 0.5039 -0.0085
vn -0.9303 0.2563 0.2624
vn -0.8500 0.4237 -0.3130
vn -0.6084 0.6860 -0.3990
vn -0.4506 0.3026 0.8399
vn -0.7577 0.2272 0.6118
vn -0.7523 0.2144 0.6230
vn -0.4139 0.3564 0.8377
vn -0.2677 0.3586 0.8943
vn -0.3572 0.1908 0.9143
vn -0.8384 0.2573 0.4805
vn -0.7863 0.2941 0.5433
vn 0.7922 0.5960 0.1307
vn 0.7598 0.4586 0.4609
vn 0.9499 0.2967 -0.0980
vn 0.2729 0.3940 -0.8776
vn 0.2194 0.8587 -0.4631
vn 0.4738 0.8562 -0.2059
vn -0.0464 0.3729 0.9267
vn -0.0239 0.4111 0.9113
vn -0.0418 0.2586 0.9651
vn -0.0809 -0.0765 0.9938
vn -0.1091 0.1384 0.9843
vn -0.1968 -0.2696 0.9426
vn -0.1040 -0.9642 -0.2440
vn 0.1620 -0.8318 -0.5309
vn -0.0014 -0.9996 -0.0294
vn -0.2609 -0.9639 0.0541
vn -0.2088 -0.9425 -0.2611
vn -0.1403 -0.7350 -0.6634
vn -0.2230 -0.9512 -0.2133
vn -0.2574 -0.8924 -0.3706
vn -0.3205 -0.9463 -0.0417
vn -0.0678 -0.9884 0.1357
vn 0.0516 -0.9530 0.2987
vn 0.0687 -0.9637 0.2580
vn -0.1459 -0.8840 0.4441
vn -0.4027 -0.3921 0.8271
vn -0.3920 -0.6674 0.6332
vn 0.8832 0.4633 -0.0732
vn 0.9021 0.4299 0.0372
vn 0.8844 0.3829 -0.2669
vn 0.8370 0.2859 -0.4667
vn 0.8344 0.0960 -0.5428
vn 0.5245 -0.1248 -0.8422
vn 0.8197 0.2900 -0.4940
vn 0.7407 0.3297 -0.5854
vn 0.5661 0.6988 -0.4372
vn 0.4749 0.2038 -0.8561
vn 0.3011 0.7008 -0.6468
vn 0.0292 -0.4647 -0.8850
vn 0.0460 -0.2122 -0.9762
vn 0.2199 -0.4768 -0.8511
vn -0.1035 -0.5111 -0.8532
vn 0.3291 -0.5359 -0.7775
vn 0.6507 -0.3963 -0.6478
vn 0.8311 -0.1858 -0.5242
vn 0.3251 -0.8680 0.3753
vn 0.3121 -0.5265 0.7908
vn 0.8067 0.3737 0.4578
vn 0.7204 0.6590 -0.2162
vn 0.2269 0.9230 0.3108
vn 0.4464 0.3079 0.8402
vn -0.3978 -0.9121 0.0995
vn -0.4022 -0.8760 0.2664
vn -0.2226 -0.8835 0.4122
vn 0.9134 0.3995 -0.0785
vn 0.7666 0.6383 -0.0703
vn 0.5660 0.1039 -0.8178
vn 0.7050 0.7069 0.0578
vn -0.8070 0.1490 0.5715
vn -0.7663 0.2685 0.5837
vn -0.7182 0.3459 0.6038
vn -0.5146 0.3358 0.7889
vn -0.0772 0.0824 0.9936
vn -0.3123 0.2914 0.9042
vn -0.0217 0.4177 0.9083
vn -0.1029 0.3443 0.9332
vn -0.1780 0.3086 0.9344
vn 0.0274 -0.8425 0.5381
vn -0.3185 -0.9116 0.2598
vn 0.2514 -0.8478 -0.4670
vn 0.1973 -0.9731 0.1191
vn -0.3071 -0.8207 0.4819
vn 0.9198 0.3583 0.1599
vn 0.2675 0.8982 -0.3489
vn 0.1166 0.9270 -0.3564
vn 0.2100 0.1557 -0.9652
vn 0.0021 0.5786 -0.8156
vn -0.3187 -0.5263 -0.7883
vn -0.6836 -0.3511 -0.6398
vn -0.5102 -0.2976 -0.8069
vn -0.1835 -0.3760 -0.9083
vn 0.0637 -0.4873 -0.8709
vn 0.2159 -0.5408 -0.8130
vn -0.4930 -0.7821 -0.3813
vn -0.9339 -0.3393 -0.1128
vn 0.6069 0.3772 0.6996
vn 0.3880 -0.0182 0.9215
vn 0.2546 -0.9142 -0.3153
vn -0.0118 -0.7597 -0.6502
vn -0.4952 0.0243 -0.8684
vn -0.7668 -0.1361 -0.6272
vn -0.7258 0.1969 -0.6592
vn -0.6532 -0.7406 0.1576
vn -0.9282 -0.3237 0.1836
vn -0.9635 -0.1784 -0.1995
vn -0.7033 -0.2311 -0.6723
vn -0.0325 -0.4362 -0.8993
vn -0.2464 -0.6882 -0.6824
vn -0.2631 -0.7087 -0.6547
vn -0.2541 -0.8361 -0.4862
vn -0.9119 0.0858 -0.4014
vn -0.6826 0.3653 -0.6330
vn -0.4553 -0.5183 -0.7239
vn -0.1455 -0.6569 -0.7398
vn -0.0185 -0.7471 -0.6645
vn -0.2039 0.6470 -0.7347
vn 0.0875 0.7338 -0.6737
vn 0.2564 0.8703 -0.4205
vn 0.1995 0.4880 -0.8497
vn -0.7788 0.3978 0.4851
vn -0.4673 0.8131 -0.3472
vn 0.1643 0.0304 -0.9859
vn -0.1560 0.4109 -0.8982
vn -0.3390 0.6585 -0.6719
vn -0.3630 0.4226 -0.8304
vn -0.4112 0.6254 -0.6632
vn -0.2329 0.5067 -0.8301
vn 0.0347 0.4746 -0.8795
usemtl None
s 1
f 1/1/1 76/2/2 160/3/3 88/4/4
f 1/1/1 88/4/4 161/5/5 98/6/6
f 1/1/1 98/6/6 162/7/7 76/2/2
f 2/8/8 110/9/9 166/10/10 67/11/11
f 2/8/8 67/11/11 167/12/12 122/13/13
f 2/8/8 122/13/13 165/14/14 110/9/9
f 3/15/15 83/16/16 166/17/10 73/18/17
f 3/15/15 73/18/17 168/19/18 121/20/19
f 3/15/15 121/20/19 169/21/20 83/16/16
f 4/22/21 130/23/22 169/21/20 74/24/23
f 4/22/21 74/24/23 170/25/24 95/26/25
f 4/22/21 95/26/25 182/27/26 130/23/22
f 5/28/27 131/29/28 161/5/5 108/30/29
f 5/28/27 108/30/29 166/17/10 129/31/30
f 5/28/27 129/31/30 182/27/26 131/29/28
f 6/32/31 101/33/32 171/34/33 96/35/34
f 6/32/31 96/35/34 172/36/35 86/37/36
f 6/32/31 86/37/36 173/38/37 101/33/32
f 7/39/38 109/40/39 174/41/40 66/42/41
f 7/39/38 66/42/41 175/43/42 117/44/43
f 7/39/38 117/44/43 173/45/37 109/40/39
f 8/46/44 117/44/43 175/43/42 60/47/45
f 8/46/44 60/47/45 176/48/46 92/49/47
f 8/46/44 92/49/47 173/45/37 117/44/43
f 9/50/48 148/51/49 189/52/50 144/53/51
f 9/50/48 144/53/51 188/54/52 135/55/53
f 9/50/48 135/55/53 178/56/54 139/57/55
f 9/50/48 139/57/55 156/58/56 148/51/49
f 10/59/57 68/60/58 175/43/42 66/42/41
f 10/59/57 66/42/41 174/41/40 62/61/59
f 10/59/57 62/61/59 154/62/60 68/60/58
f 11/63/61 62/61/59 174/41/40 128/64/62
f 11/63/61 128/64/62 157/65/63 118/66/64
f 11/63/61 118/66/64 154/62/60 62/61/59
f 12/67/65 89/68/66 157/69/63 115/70/67
f 12/67/65 115/70/67 179/71/68 112/72/69
f 12/67/65 112/72/69 159/73/70 89/68/66
f 13/74/71 94/75/72 174/76/40 109/77/39
f 13/74/71 109/77/39 173/38/37 86/37/36
f 13/74/71 86/37/36 172/36/35 94/75/72
f 14/78/73 69/79/74 168/80/18 127/81/75
f 14/78/73 127/81/75 155/82/76 65/83/77
f 14/78/73 65/83/77 163/84/78 69/79/74
f 15/85/79 81/86/80 168/19/18 71/87/81
f 15/85/79 71/87/81 159/73/70 112/72/69
f 15/85/79 112/72/69 179/71/68 81/86/80
f 16/88/82 123/89/83 172/36/35 107/90/84
f 16/88/82 107/90/84 170/25/24 74/24/23
f 16/88/82 74/24/23 169/21/20 123/89/83
f 17/91/85 97/92/86 162/7/7 125/93/87
f 17/91/85 125/93/87 180/94/88 106/95/89
f 17/91/85 106/95/89 177/96/90 97/92/86
f 18/97/91 133/98/92 177/96/90 106/95/89
f 18/97/91 106/95/89 180/94/88 99/99/93
f 18/97/91 99/99/93 184/100/94 133/98/92
f 19/101/95 125/93/87 162/7/7 90/102/96
f 19/101/95 90/102/96 170/25/24 126/103/97
f 19/101/95 126/103/97 180/94/88 125/93/87
f 20/104/98 102/105/99 170/25/24 107/90/84
f 20/104/98 107/90/84 172/36/35 96/35/34
f 20/104/98 96/35/34 171/34/33 102/105/99
f 21/106/100 91/107/101 160/3/3 80/108/102
f 21/106/100 80/108/102 167/109/12 67/110/11
f 21/106/100 67/110/11 166/17/10 91/107/101
f 22/111/103 80/108/102 160/3/3 78/112/104
f 22/111/103 78/112/104 181/113/105 84/114/106
f 22/111/103 84/114/106 167/109/12 80/108/102
f 23/115/107 85/116/108 167/12/12 84/117/106
f 23/115/107 84/117/106 181/118/105 82/119/109
f 23/115/107 82/119/109 164/120/110 85/116/108
f 24/121/111 100/122/112 181/118/105 113/123/113
f 24/121/111 113/123/113 177/124/90 114/125/114
f 24/121/111 114/125/114 156/58/56 100/122/112
f 25/126/115 113/127/113 181/113/105 111/128/116
f 25/126/115 111/128/116 162/7/7 97/92/86
f 25/126/115 97/92/86 177/96/90 113/127/113
f 26/129/117 111/128/116 181/113/105 78/112/104
f 26/129/117 78/112/104 160/3/3 76/2/2
f 26/129/117 76/2/2 162/7/7 111/128/116
f 27/130/118 98/6/6 161/5/5 72/131/119
f 27/130/118 72/131/119 170/25/24 90/102/96
f 27/130/118 90/102/96 162/7/7 98/6/6
f 28/132/120 69/79/74 163/84/78 120/133/121
f 28/132/120 120/133/121 158/134/122 105/135/123
f 28/132/120 105/135/123 168/80/18 69/79/74
f 29/136/124 99/99/93 180/94/88 70/137/125
f 29/136/124 70/137/125 171/34/33 134/138/126
f 29/136/124 134/138/126 184/100/94 99/99/93
f 30/139/127 93/140/128 165/14/14 104/141/129
f 30/139/127 104/141/129 155/82/76 127/81/75
f 30/139/127 127/81/75 168/80/18 93/140/128
f 31/142/130 93/140/128 168/80/18 73/143/17
f 31/142/130 73/143/17 166/10/10 110/9/9
f 31/142/130 110/9/9 165/14/14 93/140/128
f 32/144/131 116/145/132 179/71/68 115/70/67
f 32/144/131 115/70/67 157/69/63 128/146/62
f 32/144/131 128/146/62 174/76/40 116/145/132
f 33/147/133 79/148/134 179/71/68 116/145/132
f 33/147/133 116/145/132 174/76/40 94/75/72
f 33/147/133 94/75/72 172/36/35 79/148/134
f 34/149/135 124/150/136 159/73/70 71/87/81
f 34/149/135 71/87/81 168/19/18 105/151/123
f 34/149/135 105/151/123 158/152/122 124/150/136
f 35/153/137 64/154/138 169/21/20 121/20/19
f 35/153/137 121/20/19 168/19/18 81/86/80
f 35/153/137 81/86/80 179/71/68 64/154/138
f 36/155/139 64/154/138 179/71/68 79/148/134
f 36/155/139 79/148/134 172/36/35 123/89/83
f 36/155/139 123/89/83 169/21/20 64/154/138
f 37/156/140 134/157/126 171/158/33 119/159/141
f 37/156/140 119/159/141 183/160/142 132/161/143
f 37/156/140 132/161/143 184/162/94 134/157/126
f 38/163/144 70/137/125 180/94/88 126/103/97
f 38/163/144 126/103/97 170/25/24 102/105/99
f 38/163/144 102/105/99 171/34/33 70/137/125
f 39/164/145 88/4/4 160/3/3 91/107/101
f 39/164/145 91/107/101 166/17/10 108/30/29
f 39/164/145 108/30/29 161/5/5 88/4/4
f 40/165/146 103/166/147 165/14/14 122/13/13
f 40/165/146 122/13/13 167/12/12 85/116/108
f 40/165/146 85/116/108 164/120/110 103/166/147
f 41/167/148 100/122/112 156/58/56 77/168/149
f 41/167/148 77/168/149 164/120/110 82/119/109
f 41/167/148 82/119/109 181/118/105 100/122/112
f 42/169/150 150/170/151 187/171/152 142/172/153
f 42/169/150 142/172/153 186/173/154 147/174/155
f 42/169/150 147/174/155 183/160/142 138/175/156
f 42/169/150 138/175/156 185/176/157 150/170/151
f 43/177/158 129/31/30 166/17/10 83/16/16
f 43/177/158 83/16/16 169/21/20 130/23/22
f 43/177/158 130/23/22 182/27/26 129/31/30
f 44/178/159 95/26/25 170/25/24 72/131/119
f 44/178/159 72/131/119 161/5/5 131/29/28
f 44/178/159 131/29/28 182/27/26 95/26/25
f 45/179/160 132/161/143 183/160/142 63/180/161
f 45/179/160 63/180/161 177/124/90 133/181/92
f 45/179/160 133/181/92 184/162/94 132/161/143
f 46/182/162 135/55/53 188/54/52 149/183/163
f 46/182/162 149/183/163 176/48/46 136/184/164
f 46/182/162 136/184/164 178/56/54 135/55/53
f 47/185/165 138/175/156 183/160/142 119/159/141
f 47/185/165 119/159/141 171/158/33 137/186/166
f 47/185/165 137/186/166 185/176/157 138/175/156
f 48/187/167 137/186/166 171/158/33 101/188/32
f 48/187/167 101/188/32 173/45/37 92/49/47
f 48/187/167 92/49/47 176/48/46 149/183/163
f 48/187/167 149/183/163 188/54/52 143/189/168
f 48/187/167 143/189/168 187/171/152 150/170/151
f 48/187/167 150/170/151 185/176/157
f 49/190/169 148/51/49 156/58/56 114/125/114
f 49/190/169 114/125/114 177/124/90 146/191/170
f 49/190/169 146/191/170 190/192/171 145/193/172
f 49/190/169 145/193/172 189/52/50
f 50/194/173 136/184/164 176/48/46 60/47/45
f 50/194/173 60/47/45 175/43/42 140/195/174
f 140/195/174 156/58/56 139/57/55
f 50/194/173 139/57/55 178/56/54 136/184/164
f 51/196/175 141/197/176 186/173/154 142/172/153
f 51/196/175 142/172/153 187/171/152 143/189/168
f 51/196/175 143/189/168 188/54/52 144/53/51
f 144/53/51 189/52/50 145/193/172
f 51/196/175 145/193/172 190/192/171 141/197/176
f 52/198/177 146/191/170 177/124/90 63/180/161
f 52/198/177 63/180/161 183/160/142 147/174/155
f 52/198/177 147/174/155 186/173/154 141/197/176
f 52/198/177 141/197/176 190/192/171 146/191/170
f 53/199/178 68/60/58 154/62/60 87/200/179
f 53/199/178 87/200/179 164/120/110 77/168/149
f 53/199/178 77/168/149 156/58/56 140/195/174
f 53/199/178 140/195/174 175/43/42 68/60/58
f 54/201/180 75/202/181 165/14/14 103/166/147
f 54/201/180 103/166/147 164/120/110 87/200/179
f 54/201/180 87/200/179 154/62/60 75/202/181
f 55/203/182 124/150/136 158/152/122 61/204/183
f 55/203/182 61/204/183 157/69/63 89/68/66
f 55/203/182 89/68/66 159/73/70 124/150/136
f 56/205/184 104/141/129 165/14/14 75/202/181
f 56/205/184 75/202/181 154/62/60 151/206/185
f 56/205/184 151/206/185 155/82/76 104/141/129
f 57/207/186 118/66/64 157/65/63 152/208/187
f 57/207/186 152/208/187 155/82/76 151/206/185
f 57/207/186 151/206/185 154/62/60 118/66/64
f 58/209/188 153/210/189 163/84/78 65/83/77
f 58/209/188 65/83/77 155/82/76 152/208/187
f 58/209/188 152/208/187 157/65/63 153/210/189
f 59/211/190 61/212/183 158/134/122 120/133/121
f 59/211/190 120/133/121 163/84/78 153/210/189
f 59/211/190 153/210/189 157/65/63 61/212/183
f 51/196/175 144/53/51 145/193/172
f 148/51/49 49/190/169 189/52/50
f 50/194/173 140/195/174 139/57/55
f 137/186/166 48/187/167 185/176/157
