# Blender v2.78 (sub 0) OBJ File: 'BubregLowPoly.blend'
# www.blender.org
mtllib Bubreg.mtl
o obj0.000
v -0.041264 -0.067130 0.028036
v -0.071720 0.048201 0.003025
v -0.066839 0.055626 0.018665
v -0.032634 -0.094576 0.024445
v -0.017505 -0.104762 0.024451
v -0.022730 -0.095834 0.036083
v -0.030810 -0.051800 0.039756
v -0.037539 -0.070206 -0.003737
v -0.044267 -0.046676 0.002323
v -0.039306 -0.039168 0.029609
v -0.039032 -0.035268 0.015809
v -0.056775 0.020653 0.008871
v -0.059059 0.032244 0.019972
v -0.059224 0.033453 -0.020845
v -0.065630 0.066687 -0.020397
v -0.070634 0.075181 0.005810
v -0.011601 -0.076507 0.044847
v -0.040807 -0.034746 -0.010078
v -0.037614 -0.029748 -0.000120
v -0.024852 -0.021725 0.025791
v -0.026792 0.043219 0.032776
v -0.032201 0.086700 0.020368
v -0.008562 -0.106119 0.008548
v -0.021526 -0.017386 0.034237
v -0.051603 0.010763 -0.010913
v -0.046555 -0.003774 -0.024589
v -0.040996 0.013125 -0.004815
v -0.049154 0.014954 -0.007449
v -0.053243 0.101521 -0.006824
v 0.008197 -0.087597 0.040960
v 0.012016 -0.036963 0.042163
v -0.031786 0.017915 0.021428
v -0.013872 0.022566 -0.001531
v -0.018857 0.017871 0.012810
v -0.021247 0.028161 0.031711
v -0.056184 0.094859 -0.021851
v 0.007676 -0.104139 0.029769
v -0.016991 -0.084144 -0.009533
v -0.025972 -0.045301 -0.027655
v -0.014986 -0.032256 0.008690
v -0.011674 -0.024453 0.017803
v -0.019267 -0.019268 -0.003974
v -0.010352 0.011475 0.010034
v -0.023741 0.019694 0.036527
v -0.020990 0.015974 -0.012166
v -0.040843 0.087536 -0.038853
v 0.010584 0.007328 0.044947
v -0.042657 0.109903 -0.014584
v 0.026032 -0.096617 0.015244
v 0.010541 -0.095762 -0.004686
v 0.013627 -0.050196 -0.034541
v -0.010015 -0.019862 0.005247
v -0.027649 0.011836 -0.043506
v -0.006123 0.005666 -0.005740
v -0.016655 0.004976 -0.014737
v 0.006116 0.060087 0.030693
v -0.034544 0.103377 -0.035158
v -0.025765 0.112760 -0.023969
v 0.031551 -0.074000 0.034040
v 0.032195 -0.007035 0.042618
v -0.010051 0.014409 -0.010326
v -0.006580 0.102263 -0.003697
v 0.036342 -0.079484 -0.008700
v -0.013422 0.101713 -0.036737
v 0.014423 0.063882 0.024976
v 0.045716 -0.002228 0.030515
v -0.001398 0.062328 -0.050274
v -0.000376 0.103700 -0.019152
v 0.056036 -0.050953 0.000033
v 0.050904 -0.052060 0.018315
v 0.046134 -0.055016 -0.018501
v 0.033108 -0.020066 -0.036912
v 0.009727 0.093792 -0.030425
v 0.016194 0.068462 -0.044154
v 0.025029 0.078475 -0.010844
v 0.053228 0.013777 -0.007853
v 0.052429 0.003370 -0.023950
v 0.031031 0.061607 -0.033981
vt 0.1354 0.8264
vt 0.1731 0.8290
vt 0.1746 0.8930
vt 0.2116 0.8703
vt 0.2376 0.9213
vt 0.1748 0.2961
vt 0.1694 0.3362
vt 0.1320 0.3243
vt 0.1032 0.3998
vt 0.1419 0.4472
vt 0.5344 0.5920
vt 0.6151 0.5533
vt 0.5938 0.6558
vt 0.5686 0.5001
vt 0.1031 0.4782
vt 0.0261 0.4565
vt 0.0665 0.4912
vt 0.5943 0.1155
vt 0.6396 0.1976
vt 0.5418 0.1893
vt 0.6776 0.1081
vt 0.6313 0.0444
vt 0.1982 0.3880
vt 0.1537 0.5697
vt 0.5464 0.4401
vt 0.5191 0.4925
vt 0.1130 0.5611
vt 0.1454 0.7263
vt 0.5639 0.2534
vt 0.2424 0.7647
vt 0.3144 0.8546
vt 0.6771 0.6549
vt 0.6392 0.6834
vt 0.2452 0.3578
vt 0.6733 0.5826
vt 0.5892 0.4470
vt 0.5795 0.2695
vt 0.5313 0.2673
vt 0.6275 0.3345
vt 0.7422 0.0494
vt 0.2494 0.3022
vt 0.6657 0.4712
vt 0.0241 0.5576
vt 0.2021 0.6920
vt 0.4259 0.2871
vt 0.0432 0.7320
vt 0.2185 0.7203
vt 0.7136 0.3076
vt 0.7781 0.1086
vt 0.3114 0.9806
vt 0.3191 0.9394
vt 0.7049 0.7201
vt 0.2616 0.4927
vt 0.4639 0.4485
vt 0.0524 0.5772
vt 0.4818 0.3994
vt 0.0870 0.7130
vt 0.4595 0.3053
vt 0.3578 0.9477
vt 0.7720 0.6855
vt 0.0298 0.6087
vt 0.0618 0.6916
vt 0.4608 0.3326
vt 0.2843 0.6135
vt 0.7317 0.6262
vt 0.3071 0.3885
vt 0.4480 0.4154
vt 0.4246 0.3408
vt 0.8137 0.0796
vt 0.8019 0.0133
vt 0.7662 0.5002
vt 0.0142 0.6874
vt 0.4397 0.3171
vt 0.3392 0.7443
vt 0.8538 0.0495
vt 0.3203 0.3091
vt 0.3266 0.5603
vt 0.4022 0.8633
vt 0.8019 0.6041
vt 0.8329 0.2171
vt 0.8601 0.1103
vt 0.4073 0.9367
vt 0.3662 0.7438
vt 0.4419 0.8754
vt 0.3748 0.5615
vt 0.9244 0.1015
vt 0.8979 0.5825
vt 0.3812 0.4308
vt 0.4326 0.4190
vt 0.8395 0.4458
vt 0.4627 0.7814
vt 0.8447 0.5497
vt 0.8820 0.2221
vt 0.9111 0.1538
vt 0.4765 0.5938
vt 0.9839 0.1983
vt 0.9199 0.2532
vt 0.9747 0.4081
vt 0.9205 0.4185
vn -0.5879 -0.7743 0.2342
vn -0.6113 -0.3858 0.6909
vn -0.9765 -0.2150 0.0163
vn -0.6910 0.0665 0.7198
vn -0.8662 0.3858 0.3176
vn -0.3245 -0.9289 0.1782
vn -0.4008 -0.5495 0.7331
vn -0.7932 -0.6014 0.0955
vn -0.9069 -0.1774 0.3822
vn -0.4635 0.0660 0.8836
vn -0.8003 -0.4037 -0.4433
vn -0.9938 0.0362 -0.1045
vn -0.8361 0.3220 0.4441
vn -0.7453 0.6655 0.0382
vn -0.8135 -0.3161 -0.4882
vn -0.8411 0.0531 -0.5383
vn -0.1054 -0.1320 0.9856
vn -0.6113 0.1041 0.7845
vn -0.6890 0.4342 0.5803
vn -0.8526 0.4288 -0.2987
vn -0.7178 -0.6501 0.2492
vn -0.6587 -0.6030 0.4500
vn -0.1707 -0.0054 0.9853
vn -0.1111 0.5826 0.8051
vn -0.1680 -0.9170 -0.3617
vn 0.2520 -0.3130 0.9157
vn -0.3591 -0.5884 -0.7245
vn -0.9688 -0.1386 -0.2054
vn -0.9458 -0.1915 0.2623
vn -0.0208 -0.4965 0.8677
vn -0.8556 -0.1079 -0.5063
vn -0.7645 0.4779 -0.4326
vn 0.2783 -0.8525 0.4423
vn -0.4932 -0.3386 -0.8013
vn -0.5333 0.8377 0.1172
vn -0.5612 0.2569 0.7867
vn -0.4381 -0.8931 0.1022
vn -0.3863 0.1553 0.9092
vn -0.3758 -0.1484 -0.9147
vn -0.4344 0.1999 -0.8782
vn -0.5978 0.7491 0.2854
vn 0.0307 -0.0328 0.9990
vn -0.7725 0.0201 -0.6347
vn -0.2508 0.4178 0.8732
vn -0.4703 -0.6171 -0.6308
vn 0.1410 -0.5706 0.8090
vn -0.3521 0.9320 0.0854
vn 0.6246 -0.7788 0.0583
vn -0.9592 0.2462 0.1391
vn -0.7983 -0.2881 -0.5289
vn -0.1243 0.1664 0.9782
vn 0.0026 0.1337 0.9910
vn 0.1698 -0.7659 -0.6201
vn 0.6059 -0.3201 0.7283
vn -0.9551 0.0287 0.2947
vn -0.2965 0.5994 -0.7435
vn 0.0785 -0.3700 -0.9257
vn -0.6729 -0.4306 0.6014
vn 0.1889 0.3840 0.9038
vn 0.0297 0.9858 -0.1650
vn 0.4205 0.0598 0.9053
vn 0.3321 0.8191 0.4677
vn 0.5997 -0.6291 -0.4944
vn 0.0501 0.1055 -0.9931
vn 0.1939 0.6427 -0.7411
vn 0.5389 0.5213 0.6616
vn 0.5003 0.8658 -0.0090
vn 0.8171 0.1682 0.5513
vn 0.9679 -0.2457 -0.0525
vn 0.8747 -0.2181 0.4328
vn 0.3953 -0.1371 -0.9082
vn 0.7991 0.5787 0.1632
vn 0.6740 -0.3566 -0.6469
vn 0.4591 0.2890 -0.8401
vn 0.6032 0.6795 -0.4176
vn 0.9648 0.2553 0.0631
vn 0.8078 0.3335 -0.4860
vn 0.8586 0.0612 -0.5090
usemtl None
s 1
f 12/1/1 13/2/2 2/3/3
f 13/2/2 3/4/4 2/3/3
f 2/3/3 3/4/4 16/5/5
f 5/6/6 6/7/7 4/8/8
f 4/8/8 6/7/7 1/9/9
f 6/7/7 7/10/10 1/9/9
f 1/11/9 8/12/11 4/13/8
f 1/11/9 9/14/12 8/12/11
f 1/9/9 7/10/10 10/15/13
f 10/15/13 9/16/12 1/9/9
f 10/15/13 11/17/14 9/16/12
f 2/18/3 14/19/15 12/20/1
f 2/18/3 15/21/16 14/19/15
f 2/18/3 16/22/5 15/21/16
f 7/10/10 6/7/7 17/23/17
f 7/10/10 24/24/18 10/15/13
f 19/25/19 9/14/12 11/26/14
f 10/15/13 20/27/20 11/17/14
f 32/28/21 13/2/2 12/1/1
f 28/29/22 12/20/1 14/19/15
f 13/2/2 32/28/21 21/30/23
f 13/2/2 21/30/23 3/4/4
f 16/5/5 3/4/4 22/31/24
f 23/32/25 5/33/6 4/13/8
f 17/23/17 6/7/7 30/34/26
f 23/32/25 4/13/8 8/12/11
f 38/35/27 23/32/25 8/12/11
f 18/36/28 8/12/11 9/14/12
f 9/14/12 19/25/19 18/36/28
f 24/24/18 20/27/20 10/15/13
f 25/37/29 18/36/28 19/25/19
f 25/37/29 19/25/19 27/38/30
f 26/39/31 18/36/28 25/37/29
f 28/29/22 27/38/30 12/20/1
f 14/19/15 25/37/29 28/29/22
f 22/31/24 3/4/4 21/30/23
f 36/40/32 15/21/16 16/22/5
f 37/41/33 6/7/7 5/6/6
f 37/41/33 30/34/26 6/7/7
f 8/12/11 39/42/34 38/35/27
f 18/36/28 39/42/34 8/12/11
f 40/43/35 11/17/14 20/27/20
f 39/42/34 18/36/28 26/39/31
f 44/44/36 32/28/21 20/27/20
f 24/24/18 44/44/36 20/27/20
f 28/29/22 25/37/29 27/38/30
f 33/45/37 12/20/1 27/38/30
f 33/46/37 32/28/21 12/1/1
f 44/44/36 35/47/38 32/28/21
f 25/37/29 14/19/15 53/48/39
f 35/47/38 21/30/23 32/28/21
f 15/21/16 36/40/32 46/49/40
f 36/50/32 16/5/5 29/51/41
f 16/5/5 22/31/24 29/51/41
f 37/52/33 5/33/6 23/32/25
f 31/53/42 7/10/10 17/23/17
f 40/54/35 19/25/19 11/26/14
f 40/43/35 20/27/20 41/55/43
f 42/56/44 19/25/19 40/54/35
f 42/56/44 27/38/30 19/25/19
f 34/57/45 20/27/20 32/28/21
f 45/58/46 33/45/37 27/38/30
f 26/39/31 25/37/29 53/48/39
f 14/19/15 15/21/16 53/48/39
f 36/50/32 29/51/41 48/59/47
f 23/32/25 49/60/48 37/52/33
f 24/24/18 7/10/10 31/53/42
f 41/55/43 20/27/20 52/61/49
f 20/27/20 43/62/50 52/61/49
f 55/63/51 45/58/46 27/38/30
f 42/56/44 55/63/51 27/38/30
f 43/62/50 20/27/20 34/57/45
f 24/24/18 47/64/52 44/44/36
f 47/64/52 35/47/38 44/44/36
f 33/46/37 34/57/45 32/28/21
f 53/48/39 15/21/16 46/49/40
f 50/65/53 23/32/25 38/35/27
f 59/66/54 17/23/17 30/34/26
f 59/66/54 31/53/42 17/23/17
f 52/61/49 40/43/35 41/55/43
f 31/53/42 47/64/52 24/24/18
f 40/54/35 52/67/49 42/56/44
f 54/68/55 42/56/44 52/67/49
f 26/39/31 53/48/39 39/42/34
f 55/63/51 42/56/44 54/68/55
f 36/40/32 57/69/56 46/49/40
f 29/51/41 22/31/24 48/59/47
f 36/40/32 48/70/47 57/69/56
f 51/71/57 38/35/27 39/42/34
f 43/62/50 54/72/55 52/61/49
f 33/46/37 54/72/55 43/62/50
f 33/46/37 43/62/50 34/57/45
f 61/73/58 33/45/37 45/58/46
f 56/74/59 35/47/38 47/64/52
f 35/47/38 56/74/59 21/30/23
f 56/74/59 22/31/24 21/30/23
f 58/75/60 57/69/56 48/70/47
f 50/65/53 49/60/48 23/32/25
f 49/76/48 59/66/54 37/41/33
f 59/66/54 30/34/26 37/41/33
f 50/65/53 38/35/27 51/71/57
f 31/53/42 60/77/61 47/64/52
f 31/53/42 59/66/54 60/77/61
f 53/48/39 51/71/57 39/42/34
f 55/63/51 54/68/55 61/73/58
f 45/58/46 55/63/51 61/73/58
f 61/73/58 54/68/55 33/45/37
f 48/59/47 22/31/24 62/78/62
f 50/65/53 63/79/63 49/60/48
f 63/79/63 50/65/53 51/71/57
f 67/80/64 53/48/39 46/49/40
f 22/31/24 56/74/59 62/78/62
f 58/75/60 64/81/65 57/69/56
f 62/78/62 58/82/60 48/59/47
f 65/83/66 47/64/52 60/77/61
f 65/83/66 56/74/59 47/64/52
f 65/83/66 62/78/62 56/74/59
f 57/69/56 67/80/64 46/49/40
f 62/78/62 68/84/67 58/82/60
f 51/71/57 53/48/39 67/80/64
f 60/77/61 66/85/68 65/83/66
f 64/81/65 67/80/64 57/69/56
f 58/75/60 68/86/67 64/81/65
f 63/79/63 69/87/69 49/60/48
f 49/76/48 70/88/70 59/66/54
f 69/89/69 70/88/70 49/76/48
f 70/88/70 66/85/68 59/66/54
f 60/77/61 59/66/54 66/85/68
f 72/90/71 51/71/57 67/80/64
f 75/91/72 62/78/62 65/83/66
f 71/92/73 63/79/63 51/71/57
f 74/93/74 67/80/64 64/81/65
f 75/91/72 68/84/67 62/78/62
f 68/86/67 73/94/75 64/81/65
f 71/92/73 69/87/69 63/79/63
f 72/90/71 71/92/73 51/71/57
f 72/90/71 67/80/64 74/93/74
f 75/91/72 66/85/68 76/95/76
f 75/91/72 65/83/66 66/85/68
f 74/93/74 64/81/65 73/94/75
f 73/94/75 68/86/67 75/96/72
f 70/88/70 69/89/69 66/85/68
f 78/97/77 73/94/75 75/96/72
f 76/98/76 69/87/69 77/99/78
f 66/85/68 69/89/69 76/95/76
f 77/99/78 71/92/73 72/90/71
f 77/99/78 72/90/71 74/93/74
f 77/99/78 74/93/74 78/97/77
f 78/97/77 74/93/74 73/94/75
f 71/92/73 77/99/78 69/87/69
f 77/99/78 78/97/77 76/98/76
f 78/97/77 75/96/72 76/98/76
