# Blender v2.78 (sub 0) OBJ File: ''
# www.blender.org
mtllib Liver.mtl
o Cube_Cube.004
v -1.612964 2.518777 0.080778
v -2.066117 2.165858 0.684834
v -1.505451 2.417836 1.265855
v 2.828878 1.800511 0.570215
v 2.886357 1.962257 0.724448
v 2.918091 1.526646 1.247701
v -2.222066 -2.172180 -0.061571
v -2.044645 -2.147898 0.160376
v -2.068021 -1.953568 0.605267
v -2.048714 -2.177267 -0.414024
v -1.789281 1.932408 -1.255564
v -1.600260 1.387233 -1.705656
v -2.039635 1.388320 -1.366717
v 1.637370 2.065782 1.732763
v 2.876199 1.801564 1.499745
v 1.662028 1.503736 2.160503
v 1.804124 0.118885 2.126107
v 2.577001 0.845205 1.941407
v -2.373470 1.844851 0.592111
v -2.490758 0.308433 0.879024
v -2.275771 0.602525 1.361816
v -0.821541 1.608309 -1.618895
v -0.011461 0.763912 -1.420029
v -0.805338 0.618778 -1.829434
v -1.552309 0.679935 1.872742
v -2.078765 1.556052 1.462948
v -2.504286 1.783772 0.018332
v -1.888443 2.329677 -0.431935
v -0.968150 0.533377 2.156777
v -0.703277 -0.831115 1.929386
v 0.547669 -0.423719 2.084256
v -1.420553 -1.670619 1.260628
v -2.511784 0.587122 0.003072
v -2.256846 0.559037 -1.216503
v -2.426297 -1.104327 -0.169163
v -2.002724 -1.638267 -0.960124
v -2.013567 -0.925643 1.190302
v -1.469581 -1.619817 1.487362
v -0.982284 2.586912 0.002245
v -0.009574 2.407612 0.445572
v 0.208473 2.136960 0.026511
v 0.027460 2.460537 1.352486
v -1.014378 2.465723 1.457047
v 0.027460 2.283075 1.959088
v -1.656157 -0.570469 -1.615651
v -0.067322 2.166259 -0.879627
v 0.138048 1.589645 -0.014087
v 2.449707 1.920956 0.375226
v 2.387206 1.780223 0.317981
v 1.392379 1.925422 0.366644
v 2.445402 0.719624 1.736907
v 0.489715 -0.486082 1.909104
v 0.893661 -0.443394 1.891320
v -0.954608 -1.378041 1.499859
v -1.823994 -1.766328 -0.819356
v 0.144956 0.474625 -0.027408
v -0.307260 -0.011831 -1.532564
v 1.481418 1.722935 0.410130
v 1.104529 1.604200 0.116363
v -0.419840 -0.123875 0.250740
v 1.331407 1.447095 0.696697
v 1.032555 1.228423 0.033196
v 1.567412 1.004281 1.260758
v 2.168865 1.580538 1.103753
v 1.034088 0.543506 0.716732
v 1.807372 0.105784 1.769606
v -1.152059 -1.359612 -0.435885
v -1.787905 -1.668719 0.444082
v 0.324314 0.121061 0.748768
v 0.990125 0.750440 0.147729
v -1.000860 -0.863762 0.437261
v -0.811336 -0.702277 0.929400
v 0.852544 2.036549 1.893706
v 1.055096 2.129055 0.955280
v 0.027460 1.638782 2.223215
v -0.872643 2.308617 -1.129690
v -0.965040 1.673983 2.051853
v -1.581148 0.618778 -1.860458
v 0.626405 1.374681 -0.125878
v -0.634010 -0.148988 -1.754624
v 0.066653 -0.875095 1.936527
v -1.380181 -0.390018 -1.755022
v 0.001890 -0.959938 1.780442
v -1.260579 -0.475010 -1.555022
v -1.607944 -1.249012 0.515670
v -1.016522 -1.025383 -0.350625
vt 0.3683 0.4243
vt 0.3368 0.4029
vt 0.3577 0.3704
vt 0.6741 0.1384
vt 0.6462 0.1367
vt 0.6124 0.0628
vt 0.0288 0.4488
vt 0.0244 0.4208
vt 0.0619 0.3869
vt 0.0001 0.4811
vt 0.3571 0.4926
vt 0.3531 0.5294
vt 0.3308 0.5085
vt 0.5096 0.1984
vt 0.5814 0.1002
vt 0.4622 0.1516
vt 0.3695 0.0402
vt 0.4903 0.0408
vt 0.3174 0.4112
vt 0.2377 0.3989
vt 0.2574 0.3699
vt 0.3994 0.5307
vt 0.4612 0.5948
vt 0.3803 0.6036
vt 0.2720 0.3186
vt 0.3082 0.3672
vt 0.3177 0.4380
vt 0.3576 0.4503
vt 0.2769 0.2759
vt 0.1868 0.2357
vt 0.2501 0.1168
vt 0.0810 0.2962
vt 0.2583 0.4497
vt 0.2812 0.5252
vt 0.1280 0.4760
vt 0.0377 0.5928
vt 0.1531 0.3523
vt 0.1021 0.2942
vt 0.4019 0.4236
vt 0.4653 0.3843
vt 0.5048 0.4200
vt 0.4345 0.3233
vt 0.3765 0.3512
vt 0.4080 0.2909
vt 0.2061 0.6513
vt 0.4519 0.4844
vt 0.5450 0.4658
vt 0.6681 0.1915
vt 0.6843 0.2019
vt 0.6123 0.3077
vt 0.4830 0.0067
vt 0.2294 0.1102
vt 0.2609 0.0743
vt 0.1162 0.2499
vt 0.7952 0.0001
vt 0.8584 0.0001
vt 0.8432 0.0150
vt 0.9615 0.0372
vt 0.6271 0.5806
vt 0.4301 0.6984
vt 0.6410 0.3091
vt 0.6248 0.3701
vt 0.9970 0.1593
vt 0.9099 0.2696
vt 0.8557 0.2186
vt 0.9273 0.4308
vt 0.9753 0.4027
vt 0.9610 0.4448
vt 0.9573 0.3719
vt 0.8654 0.4431
vt 0.9020 0.5034
vt 0.9485 0.5611
vt 0.9698 0.5228
vt 0.8838 0.5654
vt 0.8088 0.5115
vt 0.8714 0.3656
vt 0.7755 0.4413
vt 0.8450 0.0824
vt 0.7585 0.0778
vt 0.7548 0.0272
vt 0.7351 0.3599
vt 0.8397 0.2981
vt 0.9229 0.3469
vt 0.7281 0.3256
vt 0.8025 0.1562
vt 0.7776 0.1950
vt 0.7050 0.1263
vt 0.4519 0.2419
vt 0.5316 0.2929
vt 0.3771 0.2577
vt 0.4033 0.4843
vt 0.3409 0.3097
vt 0.3257 0.5711
vt 0.6033 0.4433
vt 0.3663 0.6984
vt 0.1943 0.1590
vt 0.2530 0.6668
vt 0.7048 0.4697
vt 0.6569 0.4162
vt 0.3613 0.0001
vt 0.1759 0.1601
vt 0.9816 0.0603
vt 0.9643 0.0728
vt 0.9999 0.1237
vt 0.7056 0.1773
vt 0.7711 0.1110
vt 0.8549 0.1116
vt 0.7101 0.2692
vn -0.3280 0.9439 -0.0383
vn -0.6573 0.7215 0.2176
vn -0.4180 0.7993 0.4318
vn 0.6234 -0.3989 -0.6725
vn 0.7395 0.6243 -0.2520
vn 0.8456 -0.4777 -0.2383
vn -0.6701 -0.7421 0.0175
vn 0.2485 -0.9374 0.2441
vn -0.5917 -0.6605 0.4622
vn -0.1065 -0.9132 -0.3933
vn -0.4790 0.6370 -0.6039
vn -0.3112 0.3233 -0.8937
vn -0.7605 0.2785 -0.5865
vn 0.1565 0.8859 0.4366
vn 0.7303 0.5024 0.4629
vn 0.1867 0.2868 0.9396
vn 0.4171 -0.5354 0.7344
vn 0.7564 -0.3111 0.5754
vn -0.8738 0.4370 0.2133
vn -0.9576 -0.0633 0.2811
vn -0.7855 -0.0255 0.6183
vn 0.2106 0.4076 -0.8885
vn 0.8197 0.0196 -0.5725
vn 0.2397 0.0642 -0.9687
vn -0.5016 -0.0401 0.8642
vn -0.7009 0.2999 0.6471
vn -0.9196 0.3813 -0.0942
vn -0.5280 0.8073 -0.2636
vn -0.2766 -0.0759 0.9580
vn -0.1654 -0.2928 0.9418
vn 0.1911 -0.5729 0.7970
vn 0.4641 -0.8852 -0.0315
vn -0.9979 0.0013 -0.0648
vn -0.8557 -0.0059 -0.5175
vn -0.9827 -0.1610 -0.0919
vn -0.4530 -0.4925 -0.7432
vn -0.7482 -0.2127 0.6284
vn -0.1942 -0.6930 0.6943
vn 0.0421 0.9930 -0.1103
vn 0.2423 0.9550 -0.1710
vn 0.4986 0.6958 -0.5170
vn 0.1907 0.9738 0.1239
vn -0.1827 0.8582 0.4797
vn 0.0575 0.7684 0.6374
vn -0.2339 -0.4585 -0.8573
vn 0.6892 0.5914 -0.4188
vn 0.5829 0.0458 -0.8112
vn 0.2454 0.7364 -0.6305
vn 0.2075 -0.4811 -0.8517
vn 0.2544 0.6229 -0.7398
vn 0.6042 -0.6662 -0.4373
vn 0.4313 -0.8840 -0.1806
vn 0.3535 -0.9292 -0.1076
vn 0.5173 -0.8433 -0.1459
vn 0.3988 -0.6738 -0.6221
vn 0.7122 -0.5538 -0.4314
vn 0.7746 -0.4379 -0.4563
vn 0.3527 -0.5393 -0.7647
vn 0.5902 0.0874 -0.8025
vn 0.6463 -0.7355 -0.2034
vn 0.7237 -0.4344 -0.5363
vn 0.6553 -0.1375 -0.7427
vn 0.5869 -0.4154 -0.6949
vn 0.1931 -0.7796 -0.5958
vn 0.6275 -0.5986 -0.4979
vn 0.5944 -0.7411 -0.3122
vn 0.7843 -0.6069 -0.1287
vn 0.9078 -0.4161 -0.0533
vn 0.4571 -0.7425 -0.4897
vn 0.6876 -0.4690 -0.5543
vn 0.6605 -0.7322 -0.1666
vn 0.6387 -0.6454 -0.4190
vn 0.1760 0.7867 0.5918
vn 0.2032 0.9764 -0.0731
vn -0.0419 0.2500 0.9673
vn 0.1233 0.8102 -0.5730
vn -0.3190 0.3078 0.8964
vn -0.3281 0.0229 -0.9444
vn 0.1370 0.0554 -0.9890
vn 0.5310 -0.4370 -0.7260
vn 0.3741 -0.6919 0.6175
vn -0.0850 -0.5055 -0.8587
vn 0.5390 -0.8207 -0.1896
vn 0.5154 -0.7330 -0.4440
vn 0.7844 -0.6161 -0.0715
vn 0.7405 -0.6604 -0.1247
usemtl None.004
s 1
f 1/1/1 2/2/2 3/3/3
f 4/4/4 5/5/5 6/6/6
f 7/7/7 8/8/8 9/9/9
f 10/10/10 8/8/8 7/7/7
f 11/11/11 12/12/12 13/13/13
f 14/14/14 15/15/15 5/5/5
f 16/16/16 17/17/17 18/18/18
f 19/19/19 20/20/20 21/21/21
f 22/22/22 23/23/23 24/24/24
f 25/25/25 26/26/26 21/21/21
f 6/6/6 15/15/15 18/18/18
f 11/11/11 13/13/13 27/27/27 28/28/28
f 29/29/29 30/30/30 31/31/31
f 32/32/32 9/9/9 8/8/8
f 33/33/33 27/27/27 34/34/34
f 35/35/35 36/36/36 7/7/7
f 20/20/20 33/33/33 35/35/35
f 21/21/21 20/20/20 37/37/37
f 25/25/25 21/21/21 37/37/37
f 29/29/29 25/25/25 30/30/30
f 35/35/35 34/34/34 36/36/36
f 33/33/33 34/34/34 35/35/35
f 30/30/30 25/25/25 38/38/38
f 37/37/37 20/20/20 9/9/9
f 39/39/39 40/40/40 41/41/41
f 25/25/25 37/37/37 38/38/38
f 42/42/42 43/43/43 44/44/44
f 36/36/36 34/34/34 45/45/45
f 37/37/37 9/9/9 38/38/38
f 46/46/46 47/47/47 23/23/23
f 48/48/48 49/49/49 50/50/50
f 18/18/18 51/51/51 6/6/6
f 31/31/31 52/52/52 53/53/53
f 54/54/54 38/38/38 32/32/32
f 10/55/10 36/56/36 55/57/55
f 36/56/36 45/58/45 55/57/55
f 23/23/23 56/59/56 57/60/57
f 58/61/58 59/62/59 50/50/50
f 57/63/57 56/64/56 60/65/60
f 61/66/61 59/67/59 58/68/58
f 59/67/59 61/66/61 62/69/62
f 61/66/61 63/70/63 62/69/62
f 64/71/64 58/68/58 4/72/4
f 58/68/58 49/73/49 4/72/4
f 64/71/64 6/74/6 51/75/51
f 64/71/64 4/72/4 6/74/6
f 63/70/63 64/71/64 51/75/51
f 63/70/63 65/76/65 62/69/62
f 66/77/66 63/70/63 51/75/51
f 67/78/67 68/79/68 8/80/8
f 53/81/53 69/82/69 65/76/65
f 56/64/56 70/83/70 65/76/65
f 69/82/69 53/81/53 52/84/52
f 69/82/69 56/64/56 65/76/65
f 8/80/8 10/55/10 67/78/67
f 67/78/67 55/57/55 45/58/45
f 66/77/66 53/81/53 65/76/65
f 65/76/65 63/70/63 66/77/66
f 71/85/71 60/65/60 72/86/72
f 68/79/68 32/87/32 8/80/8
f 72/86/72 60/65/60 69/82/69
f 73/88/73 74/89/74 42/42/42 44/44/44
f 6/6/6 5/5/5 15/15/15
f 3/3/3 2/2/2 26/26/26
f 75/90/75 16/16/16 73/88/73 44/44/44
f 46/46/46 23/23/23 22/22/22 76/91/76
f 27/27/27 19/19/19 2/2/2 28/28/28
f 16/16/16 14/14/14 73/88/73
f 74/89/74 73/88/73 14/14/14
f 74/89/74 50/50/50 41/41/41 40/40/40
f 3/3/3 43/43/43 39/39/39 1/1/1
f 28/28/28 2/2/2 1/1/1
f 26/26/26 2/2/2 19/19/19
f 40/40/40 42/42/42 74/89/74
f 39/39/39 76/91/76 28/28/28 1/1/1
f 3/3/3 26/26/26 77/92/77 43/43/43
f 11/11/11 28/28/28 76/91/76
f 25/25/25 29/29/29 77/92/77 26/26/26
f 48/48/48 14/14/14 5/5/5
f 48/48/48 74/89/74 14/14/14
f 50/50/50 74/89/74 48/48/48
f 16/16/16 15/15/15 14/14/14
f 18/18/18 15/15/15 16/16/16
f 12/12/12 78/93/78 34/34/34 13/13/13
f 33/33/33 20/20/20 19/19/19 27/27/27
f 41/41/41 79/94/79 47/47/47
f 26/26/26 19/19/19 21/21/21
f 29/29/29 17/17/17 16/16/16 75/90/75
f 57/60/57 80/95/80 24/24/24 23/23/23
f 34/34/34 27/27/27 13/13/13
f 81/96/81 31/31/31 30/30/30
f 29/29/29 75/90/75 77/92/77
f 17/17/17 29/29/29 31/31/31
f 82/97/82 45/45/45 34/34/34 78/93/78
f 24/24/24 78/93/78 12/12/12 22/22/22
f 22/22/22 12/12/12 11/11/11 76/91/76
f 7/7/7 36/36/36 10/10/10
f 9/9/9 35/35/35 7/7/7
f 42/42/42 40/40/40 39/39/39 43/43/43
f 39/39/39 41/41/41 46/46/46 76/91/76
f 9/9/9 20/20/20 35/35/35
f 80/95/80 82/97/82 78/93/78 24/24/24
f 77/92/77 75/90/75 44/44/44 43/43/43
f 59/62/59 79/94/79 41/41/41 50/50/50
f 30/30/30 38/38/38 81/96/81
f 46/46/46 41/41/41 47/47/47
f 50/50/50 49/49/49 58/61/58
f 23/23/23 47/47/47 56/59/56
f 47/47/47 79/94/79 56/59/56
f 70/98/70 56/59/56 79/94/79 62/99/62
f 79/94/79 59/62/59 62/99/62
f 4/4/4 49/49/49 48/48/48 5/5/5
f 66/100/66 51/51/51 18/18/18 17/17/17
f 53/53/53 66/100/66 17/17/17 31/31/31
f 81/96/81 83/101/83 52/52/52 31/31/31
f 38/38/38 54/54/54 83/101/83 81/96/81
f 64/71/64 63/70/63 61/66/61 58/68/58
f 9/9/9 32/32/32 38/38/38
f 45/58/45 82/102/82 84/103/84
f 84/103/84 82/102/82 80/104/80
f 62/69/62 65/76/65 70/83/70
f 71/85/71 54/105/54 32/87/32 85/106/85
f 71/85/71 80/104/80 57/63/57 60/65/60
f 45/58/45 84/103/84 86/107/86 67/78/67
f 72/86/72 83/108/83 54/105/54 71/85/71
f 67/78/67 10/55/10 55/57/55
f 86/107/86 84/103/84 80/104/80 71/85/71
f 69/82/69 52/84/52 83/108/83 72/86/72
f 32/87/32 68/79/68 85/106/85
f 67/78/67 86/107/86 85/106/85 68/79/68
f 85/106/85 86/107/86 71/85/71
f 56/64/56 69/82/69 60/65/60
