# Blender v2.78 (sub 0) OBJ File: ''
# www.blender.org
mtllib LungRight.mtl
o LungRightLow_Icosphere.000
v -0.076735 -0.149471 0.007078
v -0.019566 -0.172243 0.180240
v -0.105010 -0.237797 0.091119
v -0.103781 -0.166438 0.108297
v -0.118194 -0.157175 0.015054
v -0.049801 -0.086037 -0.048931
v 0.103696 -0.188249 -0.051565
v -0.011238 -0.067212 -0.018448
v 0.033695 -0.239058 -0.156867
v -0.097227 -0.241489 -0.082837
v -0.104779 -0.028373 0.038827
v 0.063441 -0.121581 0.199387
v 0.036974 -0.040682 0.185434
v -0.031993 -0.170584 0.181692
v 0.033359 -0.126696 -0.166407
v 0.090522 0.011176 -0.142489
v 0.092375 -0.181441 -0.104416
v -0.086955 -0.115833 -0.099023
v -0.062420 -0.001735 -0.152634
v -0.028745 -0.160231 -0.164400
v -0.050921 -0.040253 0.135743
v 0.102766 -0.098417 0.193610
v 0.122220 -0.065966 0.099934
v -0.013441 0.012729 0.054944
v -0.003319 0.002090 -0.180078
v -0.108722 -0.020788 -0.059574
v -0.004823 0.045330 0.123218
v 0.019693 0.207341 0.045304
v -0.059808 0.100029 0.040987
v 0.126028 0.122401 0.123190
v 0.105232 0.250638 0.013005
v 0.111414 0.150983 0.121082
v 0.099181 0.145891 -0.124211
v 0.085264 0.280626 -0.061962
v 0.110523 0.222755 -0.007376
v -0.021585 0.115449 -0.157565
v 0.000504 0.230461 -0.113341
v 0.053056 0.162201 -0.144361
v -0.085806 0.093649 -0.015989
v -0.041155 0.209359 -0.032995
v -0.063172 0.135640 -0.103680
v 0.059510 0.294978 -0.020135
v 0.108433 0.002015 -0.115267
v 0.138948 0.076412 0.134889
v 0.107077 0.078719 0.143834
v 0.122091 -0.116067 -0.041775
v 0.134685 -0.061604 -0.034150
vt 0.7171 0.5815
vt 0.5778 0.6253
vt 0.6311 0.5320
vt 0.4859 0.1616
vt 0.3931 0.1281
vt 0.5114 0.0759
vt 0.7634 0.6256
vt 0.9057 0.6413
vt 0.7577 0.6663
vt 0.8777 0.5200
vt 0.7633 0.4890
vt 0.3671 0.2419
vt 0.6168 0.3736
vt 0.5050 0.4076
vt 0.5922 0.2284
vt 0.1496 0.1368
vt 0.1283 0.2597
vt 0.0636 0.1001
vt 0.2777 0.1395
vt 0.2324 0.2209
vt 0.2002 0.1029
vt 0.4470 0.2984
vt 0.5957 0.7990
vt 0.5727 0.7181
vt 0.6379 0.7304
vt 0.7237 0.7757
vt 0.1912 0.2285
vt 0.2994 0.2175
vt 0.3857 0.3573
vt 0.2747 0.3712
vt 0.3192 0.3176
vt 0.3194 0.4537
vt 0.2272 0.3973
vt 0.3061 0.4319
vt 0.1773 0.3260
vt 0.2173 0.3604
vt 0.1998 0.4130
vt 0.2192 0.2839
vt 0.2272 0.3289
vt 0.1974 0.3148
vt 0.2961 0.2915
vt 0.2585 0.3328
vt 0.2484 0.2929
vt 0.2324 0.3641
vt 0.1002 0.2666
vt 0.7805 0.9781
vt 0.6609 0.8903
vt 0.6681 0.9189
vt 0.3700 0.4472
vt 0.0071 0.1692
vt 0.6411 0.8946
vt 0.3080 0.0092
vt 0.1327 0.0257
vt 0.0117 0.0950
vt 0.8895 0.6870
vt 0.5678 0.6893
vt 0.5729 0.6177
vt 0.8814 0.7249
vt 0.9020 0.8116
vt 0.0071 0.2236
vt 0.6207 0.4358
vn 0.8897 -0.4554 0.0333
vn 0.3840 -0.8242 0.4163
vn -0.2907 -0.9370 0.1937
vn -0.8794 0.0245 0.4754
vn -0.9992 -0.0292 -0.0268
vn 0.5483 -0.6733 0.4961
vn 0.5140 -0.6768 0.5269
vn 0.4198 -0.8275 0.3727
vn 0.2802 -0.8402 -0.4642
vn -0.5253 -0.8453 -0.0973
vn -0.9410 0.1976 0.2749
vn 0.2827 -0.5212 0.8052
vn 0.0857 0.4740 0.8763
vn -0.3640 -0.3163 0.8760
vn 0.3572 -0.0956 -0.9291
vn 0.6332 -0.0013 -0.7740
vn 0.8409 -0.3000 -0.4504
vn -0.8813 -0.0525 -0.4696
vn -0.7057 0.0566 -0.7062
vn -0.4070 -0.1660 -0.8982
vn -0.6606 0.2855 0.6944
vn 0.8439 -0.1652 0.5104
vn 0.9627 -0.0157 -0.2700
vn 0.9948 -0.0690 -0.0745
vn -0.0385 0.0489 -0.9981
vn -0.9740 0.0849 -0.2101
vn -0.4878 0.4188 0.7660
vn -0.4330 0.5960 0.6763
vn -0.7600 0.3869 0.5222
vn 0.7509 0.3370 0.5680
vn 0.6679 0.6224 0.4080
vn 0.2792 0.5594 0.7804
vn 0.7855 0.1791 -0.5924
vn 0.5030 0.7501 -0.4293
vn 0.9941 0.0583 -0.0916
vn -0.3761 0.2766 -0.8843
vn -0.3852 0.6637 -0.6412
vn 0.2453 0.3185 -0.9156
vn -0.9443 0.3046 0.1244
vn -0.7982 0.5870 0.1354
vn -0.8549 0.3364 -0.3950
vn -0.0712 0.9713 0.2268
vn 0.9814 0.0389 -0.1881
vn 0.9243 -0.2437 0.2938
vn 0.1916 0.2559 0.9475
vn 0.8288 -0.2354 0.5076
vn 0.8882 0.0459 0.4572
usemtl None.009
s 1
f 1/1/1 2/2/2 3/3/3
f 4/4/4 5/5/5 3/6/3
f 6/7/6 7/8/7 8/9/8
f 6/7/6 9/10/9 7/8/7
f 1/1/1 10/11/10 9/10/9
f 4/4/4 11/12/11 5/5/5
f 12/13/12 13/14/13 14/15/14
f 15/16/15 16/17/16 17/18/17
f 18/19/18 19/20/19 20/21/20
f 4/4/4 21/22/21 11/12/11
f 13/23/13 22/24/22 23/25/23 24/26/24
f 15/16/15 25/27/25 16/17/16
f 18/19/18 26/28/26 19/20/19
f 27/29/27 28/30/28 29/31/29
f 30/32/30 31/33/31 32/34/32
f 33/35/33 34/36/34 35/37/35
f 36/38/36 37/39/37 38/40/38
f 39/41/39 40/42/40 41/43/41
f 40/42/40 42/44/42 37/39/37
f 40/42/40 37/39/37 41/43/41
f 41/43/41 37/39/37 36/38/36
f 37/39/37 42/44/42 34/36/34
f 37/39/37 34/36/34 38/40/38
f 38/40/38 34/36/34 33/35/33
f 34/36/34 42/44/42 31/33/31
f 34/36/34 31/33/31 35/37/35
f 35/37/35 31/33/31 30/32/30
f 31/33/31 42/44/42 28/30/28
f 31/33/31 28/30/28 32/34/32
f 32/34/32 28/30/28 27/29/27
f 28/30/28 42/44/42 40/42/40
f 28/30/28 40/42/40 29/31/29
f 29/31/29 40/42/40 39/41/39
f 26/28/26 39/41/39 41/43/41
f 26/28/26 41/43/41 19/20/19
f 19/20/19 41/43/41 36/38/36
f 25/27/25 36/38/36 38/40/38
f 25/27/25 38/40/38 16/17/16
f 16/17/16 38/40/38 33/35/33
f 43/45/43 33/35/33 35/37/35
f 24/26/24 35/46/35 44/47/44
f 44/47/44 35/46/35 30/48/30
f 45/49/45 30/32/30 32/34/32
f 45/49/45 32/34/32 13/14/13
f 13/14/13 32/34/32 27/29/27
f 21/22/21 27/29/27 29/31/29
f 21/22/21 29/31/29 11/12/11
f 11/12/11 29/31/29 39/41/39
f 19/20/19 36/38/36 25/27/25
f 19/20/19 25/27/25 20/21/20
f 20/21/20 25/27/25 15/16/15
f 16/17/16 33/35/33 43/45/43
f 16/17/16 43/45/43 17/18/17
f 17/18/17 43/45/43 46/50/46
f 44/47/44 30/48/30 45/51/45
f 13/23/13 24/26/24 44/47/44
f 13/14/13 27/29/27 21/22/21
f 13/14/13 21/22/21 14/15/14
f 14/15/14 21/22/21 4/4/4
f 11/12/11 39/41/39 26/28/26
f 11/12/11 26/28/26 5/5/5
f 5/5/5 26/28/26 18/19/18
f 10/52/10 18/19/18 20/21/20
f 10/52/10 20/21/20 9/53/9
f 9/53/9 20/21/20 15/16/15
f 9/53/9 15/16/15 17/18/17
f 9/53/9 17/18/17 7/54/7
f 7/54/7 17/18/17 46/50/46
f 8/9/8 7/8/7 46/55/46
f 8/9/8 23/25/23 22/24/22
f 2/2/2 22/24/22 12/56/12
f 5/5/5 18/19/18 10/52/10
f 5/5/5 10/52/10 3/6/3
f 3/3/3 10/11/10 1/1/1
f 2/2/2 12/56/12 14/57/14
f 2/2/2 14/57/14 3/3/3
f 3/6/3 14/15/14 4/4/4
f 47/58/47 43/59/43 24/26/24
f 8/9/8 46/55/46 47/58/47
f 2/2/2 6/7/6 8/9/8
f 1/1/1 9/10/9 6/7/6
f 43/59/43 35/46/35 24/26/24
f 1/1/1 6/7/6 2/2/2
f 46/50/46 43/45/43 47/60/47
f 22/61/22 13/14/13 12/13/12
f 44/47/44 45/51/45 13/23/13
f 2/2/2 8/9/8 22/24/22
f 8/9/8 47/58/47 24/26/24
f 23/25/23 8/9/8 24/26/24
